<?xml version="1.0" encoding="utf-8" standalone="no"?>
<!DOCTYPE svg PUBLIC "-//W3C//DTD SVG 1.1//EN"
  "http://www.w3.org/Graphics/SVG/1.1/DTD/svg11.dtd">
<svg xmlns:xlink="http://www.w3.org/1999/xlink" width="351.995062pt" height="204.68425pt" viewBox="0 0 351.995062 204.68425" xmlns="http://www.w3.org/2000/svg" version="1.1">
 <metadata>
  <rdf:RDF xmlns:dc="http://purl.org/dc/elements/1.1/" xmlns:cc="http://creativecommons.org/ns#" xmlns:rdf="http://www.w3.org/1999/02/22-rdf-syntax-ns#">
   <cc:Work>
    <dc:type rdf:resource="http://purl.org/dc/dcmitype/StillImage"/>
    <dc:date>2025-08-22T16:38:02.344134</dc:date>
    <dc:format>image/svg+xml</dc:format>
    <dc:creator>
     <cc:Agent>
      <dc:title>Zachary Levonian</dc:title>
     </cc:Agent>
    </dc:creator>
   </cc:Work>
  </rdf:RDF>
 </metadata>
 <defs>
  <style type="text/css">*{stroke-linejoin: round; stroke-linecap: butt}</style>
 </defs>
 <g id="figure_1">
  <g id="patch_1">
   <path d="M 0 204.68425 
L 351.995062 204.68425 
L 351.995062 0 
L 0 0 
z
" style="fill: #ffffff"/>
  </g>
  <g id="axes_1">
   <g id="patch_2">
    <path d="M 54.979063 167.128 
L 344.795062 167.128 
L 344.795062 7.2 
L 54.979063 7.2 
z
" style="fill: #ffffff"/>
   </g>
   <g id="FillBetweenPolyCollection_1">
    <defs>
     <path id="md4c1306fd9" d="M 68.152517 -118.18215 
L 68.152517 -112.872326 
L 72.761268 -107.675023 
L 78.155098 -113.650841 
L 84.159885 -113.513553 
L 88.82522 -112.8775 
L 94.910155 -117.713776 
L 99.764215 -113.045317 
L 105.78884 -114.799088 
L 110.695131 -118.078522 
L 115.940045 -114.950975 
L 121.437942 -114.672549 
L 127.113794 -112.65477 
L 132.395161 -117.610228 
L 137.809956 -116.744053 
L 143.307853 -115.392806 
L 148.434814 -116.051246 
L 154.009539 -115.600193 
L 159.203243 -116.231703 
L 164.73449 -116.437515 
L 170.201364 -115.295531 
L 175.590944 -113.63586 
L 180.893647 -114.887092 
L 186.353919 -115.10053 
L 191.682419 -114.78777 
L 197.098676 -114.802266 
L 202.561104 -114.380615 
L 207.846553 -113.78834 
L 213.318058 -112.492489 
L 218.586433 -112.646092 
L 223.973514 -112.856874 
L 229.432272 -112.760496 
L 234.790991 -113.209976 
L 240.168462 -113.425238 
L 245.536888 -112.843595 
L 250.873893 -112.667513 
L 256.261839 -112.464498 
L 261.66663 -112.443721 
L 267.06046 -112.106893 
L 272.420996 -111.99495 
L 277.805963 -111.699168 
L 283.186374 -111.503183 
L 288.604239 -111.837222 
L 293.966722 -111.428183 
L 299.317149 -111.180215 
L 304.686865 -111.101985 
L 310.097361 -111.214441 
L 315.470265 -110.970051 
L 320.831388 -110.820871 
L 326.238695 -110.413488 
L 331.621608 -110.662345 
L 331.621608 -111.036983 
L 331.621608 -111.036983 
L 326.238695 -111.446046 
L 320.831388 -111.586986 
L 315.470265 -112.212525 
L 310.097361 -111.854236 
L 304.686865 -112.031194 
L 299.317149 -111.934337 
L 293.966722 -112.462009 
L 288.604239 -112.627626 
L 283.186374 -112.99522 
L 277.805963 -113.174754 
L 272.420996 -113.304529 
L 267.06046 -114.78773 
L 261.66663 -113.408415 
L 256.261839 -114.388367 
L 250.873893 -114.301249 
L 245.536888 -114.511067 
L 240.168462 -115.308004 
L 234.790991 -114.435248 
L 229.432272 -115.268895 
L 223.973514 -115.552015 
L 218.586433 -115.56852 
L 213.318058 -116.735797 
L 207.846553 -115.584016 
L 202.561104 -116.774041 
L 197.098676 -117.328638 
L 191.682419 -117.307032 
L 186.353919 -118.681608 
L 180.893647 -117.765995 
L 175.590944 -119.132716 
L 170.201364 -118.672331 
L 164.73449 -118.900957 
L 159.203243 -119.961702 
L 154.009539 -118.679762 
L 148.434814 -120.72 
L 143.307853 -118.937892 
L 137.809956 -121.119504 
L 132.395161 -119.999624 
L 127.113794 -118.940244 
L 121.437942 -119.876563 
L 115.940045 -119.547174 
L 110.695131 -121.361521 
L 105.78884 -119.117662 
L 99.764215 -118.783743 
L 94.910155 -123.661399 
L 88.82522 -123.543739 
L 84.159885 -125.149499 
L 78.155098 -122.035225 
L 72.761268 -120.064687 
L 68.152517 -118.18215 
z
" style="stroke: #1f77b4; stroke-opacity: 0.3"/>
    </defs>
    <g clip-path="url(#pf4231c4f82)">
     <use xlink:href="#md4c1306fd9" x="0" y="204.68425" style="fill: #1f77b4; fill-opacity: 0.3; stroke: #1f77b4; stroke-opacity: 0.3"/>
    </g>
   </g>
   <g id="FillBetweenPolyCollection_2">
    <defs>
     <path id="mb546ca7b2e" d="M 68.152517 -109.794774 
L 68.152517 -94.845164 
L 72.761268 -96.517473 
L 78.155098 -89.862805 
L 84.159885 -92.829441 
L 88.82522 -94.19575 
L 94.910155 -91.694278 
L 99.764215 -91.267676 
L 105.78884 -97.601946 
L 110.695131 -95.361871 
L 115.940045 -95.279929 
L 121.437942 -93.556818 
L 127.113794 -93.069058 
L 132.395161 -96.696883 
L 137.809956 -98.919895 
L 143.307853 -96.372599 
L 148.434814 -91.760314 
L 154.009539 -93.022732 
L 159.203243 -96.94944 
L 164.73449 -94.806012 
L 170.201364 -95.235177 
L 175.590944 -95.842304 
L 180.893647 -99.234924 
L 186.353919 -94.604328 
L 191.682419 -93.336141 
L 197.098676 -96.228313 
L 202.561104 -97.473646 
L 207.846553 -98.629529 
L 213.318058 -95.823025 
L 218.586433 -96.410568 
L 223.973514 -97.418524 
L 229.432272 -97.570887 
L 234.790991 -96.025667 
L 240.168462 -95.92607 
L 245.536888 -97.150316 
L 250.873893 -94.998314 
L 256.261839 -96.862274 
L 261.66663 -99.142542 
L 267.06046 -96.989715 
L 272.420996 -98.112329 
L 277.805963 -97.643887 
L 283.186374 -97.925097 
L 288.604239 -96.001142 
L 293.966722 -97.215352 
L 299.317149 -97.181096 
L 304.686865 -97.302732 
L 310.097361 -98.501821 
L 315.470265 -98.26891 
L 320.831388 -97.26 
L 326.238695 -97.569655 
L 331.621608 -98.358846 
L 331.621608 -100.282791 
L 331.621608 -100.282791 
L 326.238695 -100.3279 
L 320.831388 -99.694237 
L 315.470265 -99.86877 
L 310.097361 -101.242479 
L 304.686865 -100.393408 
L 299.317149 -99.560565 
L 293.966722 -101.26872 
L 288.604239 -99.908649 
L 283.186374 -100.76527 
L 277.805963 -100.757904 
L 272.420996 -100.490358 
L 267.06046 -100.528617 
L 261.66663 -101.572622 
L 256.261839 -101.46907 
L 250.873893 -99.072493 
L 245.536888 -100.150472 
L 240.168462 -100.798574 
L 234.790991 -101.526345 
L 229.432272 -101.966418 
L 223.973514 -101.737725 
L 218.586433 -98.942762 
L 213.318058 -103.664449 
L 207.846553 -102.240242 
L 202.561104 -102.525161 
L 197.098676 -101.349248 
L 191.682419 -100.035401 
L 186.353919 -100.618591 
L 180.893647 -102.378479 
L 175.590944 -103.787018 
L 170.201364 -102.085359 
L 164.73449 -103.459424 
L 159.203243 -102.739849 
L 154.009539 -99.325997 
L 148.434814 -104.585205 
L 143.307853 -102.793319 
L 137.809956 -106.541829 
L 132.395161 -101.580717 
L 127.113794 -102.039687 
L 121.437942 -106.337149 
L 115.940045 -106.972918 
L 110.695131 -107.517098 
L 105.78884 -104.114224 
L 99.764215 -106.479672 
L 94.910155 -105.095479 
L 88.82522 -106.447068 
L 84.159885 -108.266268 
L 78.155098 -103.109708 
L 72.761268 -110.781183 
L 68.152517 -109.794774 
z
" style="stroke: #ff7f0e; stroke-opacity: 0.3"/>
    </defs>
    <g clip-path="url(#pf4231c4f82)">
     <use xlink:href="#mb546ca7b2e" x="0" y="204.68425" style="fill: #ff7f0e; fill-opacity: 0.3; stroke: #ff7f0e; stroke-opacity: 0.3"/>
    </g>
   </g>
   <g id="FillBetweenPolyCollection_3">
    <defs>
     <path id="md0bc33b943" d="M 68.152517 -133.998296 
L 68.152517 -128.753626 
L 72.761268 -127.150764 
L 78.155098 -127.317974 
L 84.159885 -125.306703 
L 88.82522 -130.66198 
L 94.910155 -127.929884 
L 99.764215 -130.151966 
L 105.78884 -126.665959 
L 110.695131 -130.620207 
L 115.940045 -130.43237 
L 121.437942 -131.27978 
L 127.113794 -129.517929 
L 132.395161 -129.97112 
L 137.809956 -128.129292 
L 143.307853 -130.441877 
L 148.434814 -131.139121 
L 154.009539 -131.52693 
L 159.203243 -129.90307 
L 164.73449 -132.689461 
L 170.201364 -130.82826 
L 175.590944 -131.911179 
L 180.893647 -131.763785 
L 186.353919 -132.244235 
L 191.682419 -132.388826 
L 197.098676 -132.733518 
L 202.561104 -132.646377 
L 207.846553 -131.915279 
L 213.318058 -132.082946 
L 218.586433 -132.763563 
L 223.973514 -132.846725 
L 229.432272 -132.575926 
L 234.790991 -133.120973 
L 240.168462 -132.991135 
L 245.536888 -133.931333 
L 250.873893 -133.400489 
L 256.261839 -132.953942 
L 261.66663 -133.804863 
L 267.06046 -133.065819 
L 272.420996 -133.418945 
L 277.805963 -133.471297 
L 283.186374 -133.347849 
L 288.604239 -133.271024 
L 293.966722 -133.206682 
L 299.317149 -133.600567 
L 304.686865 -134.295797 
L 310.097361 -133.37852 
L 315.470265 -133.434426 
L 320.831388 -134.262709 
L 326.238695 -133.690865 
L 331.621608 -133.645029 
L 331.621608 -135.490406 
L 331.621608 -135.490406 
L 326.238695 -135.777598 
L 320.831388 -135.077899 
L 315.470265 -135.119336 
L 310.097361 -134.902441 
L 304.686865 -135.65931 
L 299.317149 -135.049308 
L 293.966722 -135.505443 
L 288.604239 -134.898565 
L 283.186374 -135.308658 
L 277.805963 -134.592038 
L 272.420996 -135.482631 
L 267.06046 -134.826953 
L 261.66663 -136.198109 
L 256.261839 -134.530971 
L 250.873893 -134.053983 
L 245.536888 -135.202768 
L 240.168462 -134.653322 
L 234.790991 -134.648532 
L 229.432272 -135.201683 
L 223.973514 -134.792447 
L 218.586433 -134.722311 
L 213.318058 -135.756219 
L 207.846553 -135.398225 
L 202.561104 -134.272389 
L 197.098676 -136.21123 
L 191.682419 -135.077075 
L 186.353919 -134.021876 
L 180.893647 -135.925511 
L 175.590944 -136.139273 
L 170.201364 -134.113492 
L 164.73449 -135.108513 
L 159.203243 -133.757024 
L 154.009539 -134.438612 
L 148.434814 -134.624313 
L 143.307853 -135.777379 
L 137.809956 -134.387834 
L 132.395161 -135.373011 
L 127.113794 -136.401203 
L 121.437942 -135.59472 
L 115.940045 -136.624142 
L 110.695131 -136.995343 
L 105.78884 -130.864549 
L 99.764215 -134.596931 
L 94.910155 -133.67386 
L 88.82522 -133.487536 
L 84.159885 -133.804396 
L 78.155098 -134.099149 
L 72.761268 -130.974297 
L 68.152517 -133.998296 
z
" style="stroke: #2ca02c; stroke-opacity: 0.3"/>
    </defs>
    <g clip-path="url(#pf4231c4f82)">
     <use xlink:href="#md0bc33b943" x="0" y="204.68425" style="fill: #2ca02c; fill-opacity: 0.3; stroke: #2ca02c; stroke-opacity: 0.3"/>
    </g>
   </g>
   <g id="FillBetweenPolyCollection_4">
    <defs>
     <path id="m43d0503607" d="M 68.152517 -190.214795 
L 68.152517 -182.304205 
L 72.761268 -174.822665 
L 78.155098 -165.142627 
L 84.159885 -153.656712 
L 88.82522 -145.297184 
L 94.910155 -139.670709 
L 99.764215 -134.264912 
L 105.78884 -124.262651 
L 110.695131 -120.813997 
L 115.940045 -116.257047 
L 121.437942 -111.189117 
L 127.113794 -103.9952 
L 132.395161 -101.063184 
L 137.809956 -96.452768 
L 143.307853 -92.078709 
L 148.434814 -88.697542 
L 154.009539 -85.384666 
L 159.203243 -81.835673 
L 164.73449 -79.805658 
L 170.201364 -77.523127 
L 175.590944 -74.411605 
L 180.893647 -72.356208 
L 186.353919 -70.683153 
L 191.682419 -67.949546 
L 197.098676 -65.824404 
L 202.561104 -64.365175 
L 207.846553 -63.30509 
L 213.318058 -61.478709 
L 218.586433 -59.955452 
L 223.973514 -58.21829 
L 229.432272 -57.230052 
L 234.790991 -56.114223 
L 240.168462 -54.966947 
L 245.536888 -53.675103 
L 250.873893 -52.982124 
L 256.261839 -51.9852 
L 261.66663 -51.405038 
L 267.06046 -50.781959 
L 272.420996 -49.956099 
L 277.805963 -49.127469 
L 283.186374 -48.518762 
L 288.604239 -47.873919 
L 293.966722 -47.541353 
L 299.317149 -47.17261 
L 304.686865 -46.585783 
L 310.097361 -46.278707 
L 315.470265 -45.697751 
L 320.831388 -45.36682 
L 326.238695 -44.998484 
L 331.621608 -44.825705 
L 331.621608 -45.039399 
L 331.621608 -45.039399 
L 326.238695 -45.473798 
L 320.831388 -45.735035 
L 315.470265 -46.18061 
L 310.097361 -46.533792 
L 304.686865 -47.061628 
L 299.317149 -47.584517 
L 293.966722 -48.144262 
L 288.604239 -48.19008 
L 283.186374 -49.263572 
L 277.805963 -49.491885 
L 272.420996 -50.531879 
L 267.06046 -51.274153 
L 261.66663 -52.169081 
L 256.261839 -52.922095 
L 250.873893 -54.227468 
L 245.536888 -54.602467 
L 240.168462 -55.872033 
L 234.790991 -57.058784 
L 229.432272 -58.167662 
L 223.973514 -59.378276 
L 218.586433 -60.993444 
L 213.318058 -62.265349 
L 207.846553 -64.485919 
L 202.561104 -65.808464 
L 197.098676 -67.059824 
L 191.682419 -70.053513 
L 186.353919 -71.970283 
L 180.893647 -74.638009 
L 175.590944 -76.50873 
L 170.201364 -79.623353 
L 164.73449 -82.540126 
L 159.203243 -85.070794 
L 154.009539 -87.61119 
L 148.434814 -91.72269 
L 143.307853 -95.729641 
L 137.809956 -99.147529 
L 132.395161 -104.021921 
L 127.113794 -107.870202 
L 121.437942 -114.914624 
L 115.940045 -120.745592 
L 110.695131 -124.663655 
L 105.78884 -130.047799 
L 99.764215 -137.455244 
L 94.910155 -144.225744 
L 88.82522 -153.289063 
L 84.159885 -159.665489 
L 78.155098 -171.923802 
L 72.761268 -178.878135 
L 68.152517 -190.214795 
z
" style="stroke: #d62728; stroke-opacity: 0.3"/>
    </defs>
    <g clip-path="url(#pf4231c4f82)">
     <use xlink:href="#m43d0503607" x="0" y="204.68425" style="fill: #d62728; fill-opacity: 0.3; stroke: #d62728; stroke-opacity: 0.3"/>
    </g>
   </g>
   <g id="matplotlib.axis_1">
    <g id="xtick_1">
     <g id="line2d_1">
      <defs>
       <path id="m6f450016a3" d="M 0 0 
L 0 3.5 
" style="stroke: #000000; stroke-width: 0.8"/>
      </defs>
      <g>
       <use xlink:href="#m6f450016a3" x="68.152517" y="167.128" style="stroke: #000000; stroke-width: 0.8"/>
      </g>
     </g>
     <g id="text_1">
      <!-- $\mathdefault{2^{6}}$ -->
      <g transform="translate(62.552517 181.726437) scale(0.1 -0.1)">
       <defs>
        <path id="DejaVuSans-32" d="M 1228 531 
L 3431 531 
L 3431 0 
L 469 0 
L 469 531 
Q 828 903 1448 1529 
Q 2069 2156 2228 2338 
Q 2531 2678 2651 2914 
Q 2772 3150 2772 3378 
Q 2772 3750 2511 3984 
Q 2250 4219 1831 4219 
Q 1534 4219 1204 4116 
Q 875 4013 500 3803 
L 500 4441 
Q 881 4594 1212 4672 
Q 1544 4750 1819 4750 
Q 2544 4750 2975 4387 
Q 3406 4025 3406 3419 
Q 3406 3131 3298 2873 
Q 3191 2616 2906 2266 
Q 2828 2175 2409 1742 
Q 1991 1309 1228 531 
z
" transform="scale(0.015625)"/>
        <path id="DejaVuSans-36" d="M 2113 2584 
Q 1688 2584 1439 2293 
Q 1191 2003 1191 1497 
Q 1191 994 1439 701 
Q 1688 409 2113 409 
Q 2538 409 2786 701 
Q 3034 994 3034 1497 
Q 3034 2003 2786 2293 
Q 2538 2584 2113 2584 
z
M 3366 4563 
L 3366 3988 
Q 3128 4100 2886 4159 
Q 2644 4219 2406 4219 
Q 1781 4219 1451 3797 
Q 1122 3375 1075 2522 
Q 1259 2794 1537 2939 
Q 1816 3084 2150 3084 
Q 2853 3084 3261 2657 
Q 3669 2231 3669 1497 
Q 3669 778 3244 343 
Q 2819 -91 2113 -91 
Q 1303 -91 875 529 
Q 447 1150 447 2328 
Q 447 3434 972 4092 
Q 1497 4750 2381 4750 
Q 2619 4750 2861 4703 
Q 3103 4656 3366 4563 
z
" transform="scale(0.015625)"/>
       </defs>
       <use xlink:href="#DejaVuSans-32" transform="translate(0 0.765625)"/>
       <use xlink:href="#DejaVuSans-36" transform="translate(64.580078 39.046875) scale(0.7)"/>
      </g>
     </g>
    </g>
    <g id="xtick_2">
     <g id="line2d_2">
      <g>
       <use xlink:href="#m6f450016a3" x="120.846335" y="167.128" style="stroke: #000000; stroke-width: 0.8"/>
      </g>
     </g>
     <g id="text_2">
      <!-- $\mathdefault{2^{7}}$ -->
      <g transform="translate(115.246335 181.726437) scale(0.1 -0.1)">
       <defs>
        <path id="DejaVuSans-37" d="M 525 4666 
L 3525 4666 
L 3525 4397 
L 1831 0 
L 1172 0 
L 2766 4134 
L 525 4134 
L 525 4666 
z
" transform="scale(0.015625)"/>
       </defs>
       <use xlink:href="#DejaVuSans-32" transform="translate(0 0.684375)"/>
       <use xlink:href="#DejaVuSans-37" transform="translate(64.580078 38.965625) scale(0.7)"/>
      </g>
     </g>
    </g>
    <g id="xtick_3">
     <g id="line2d_3">
      <g>
       <use xlink:href="#m6f450016a3" x="173.540153" y="167.128" style="stroke: #000000; stroke-width: 0.8"/>
      </g>
     </g>
     <g id="text_3">
      <!-- $\mathdefault{2^{8}}$ -->
      <g transform="translate(167.940153 181.726437) scale(0.1 -0.1)">
       <defs>
        <path id="DejaVuSans-38" d="M 2034 2216 
Q 1584 2216 1326 1975 
Q 1069 1734 1069 1313 
Q 1069 891 1326 650 
Q 1584 409 2034 409 
Q 2484 409 2743 651 
Q 3003 894 3003 1313 
Q 3003 1734 2745 1975 
Q 2488 2216 2034 2216 
z
M 1403 2484 
Q 997 2584 770 2862 
Q 544 3141 544 3541 
Q 544 4100 942 4425 
Q 1341 4750 2034 4750 
Q 2731 4750 3128 4425 
Q 3525 4100 3525 3541 
Q 3525 3141 3298 2862 
Q 3072 2584 2669 2484 
Q 3125 2378 3379 2068 
Q 3634 1759 3634 1313 
Q 3634 634 3220 271 
Q 2806 -91 2034 -91 
Q 1263 -91 848 271 
Q 434 634 434 1313 
Q 434 1759 690 2068 
Q 947 2378 1403 2484 
z
M 1172 3481 
Q 1172 3119 1398 2916 
Q 1625 2713 2034 2713 
Q 2441 2713 2670 2916 
Q 2900 3119 2900 3481 
Q 2900 3844 2670 4047 
Q 2441 4250 2034 4250 
Q 1625 4250 1398 4047 
Q 1172 3844 1172 3481 
z
" transform="scale(0.015625)"/>
       </defs>
       <use xlink:href="#DejaVuSans-32" transform="translate(0 0.765625)"/>
       <use xlink:href="#DejaVuSans-38" transform="translate(64.580078 39.046875) scale(0.7)"/>
      </g>
     </g>
    </g>
    <g id="xtick_4">
     <g id="line2d_4">
      <g>
       <use xlink:href="#m6f450016a3" x="226.233972" y="167.128" style="stroke: #000000; stroke-width: 0.8"/>
      </g>
     </g>
     <g id="text_4">
      <!-- $\mathdefault{2^{9}}$ -->
      <g transform="translate(220.633972 181.726437) scale(0.1 -0.1)">
       <defs>
        <path id="DejaVuSans-39" d="M 703 97 
L 703 672 
Q 941 559 1184 500 
Q 1428 441 1663 441 
Q 2288 441 2617 861 
Q 2947 1281 2994 2138 
Q 2813 1869 2534 1725 
Q 2256 1581 1919 1581 
Q 1219 1581 811 2004 
Q 403 2428 403 3163 
Q 403 3881 828 4315 
Q 1253 4750 1959 4750 
Q 2769 4750 3195 4129 
Q 3622 3509 3622 2328 
Q 3622 1225 3098 567 
Q 2575 -91 1691 -91 
Q 1453 -91 1209 -44 
Q 966 3 703 97 
z
M 1959 2075 
Q 2384 2075 2632 2365 
Q 2881 2656 2881 3163 
Q 2881 3666 2632 3958 
Q 2384 4250 1959 4250 
Q 1534 4250 1286 3958 
Q 1038 3666 1038 3163 
Q 1038 2656 1286 2365 
Q 1534 2075 1959 2075 
z
" transform="scale(0.015625)"/>
       </defs>
       <use xlink:href="#DejaVuSans-32" transform="translate(0 0.765625)"/>
       <use xlink:href="#DejaVuSans-39" transform="translate(64.580078 39.046875) scale(0.7)"/>
      </g>
     </g>
    </g>
    <g id="xtick_5">
     <g id="line2d_5">
      <g>
       <use xlink:href="#m6f450016a3" x="278.92779" y="167.128" style="stroke: #000000; stroke-width: 0.8"/>
      </g>
     </g>
     <g id="text_5">
      <!-- $\mathdefault{2^{10}}$ -->
      <g transform="translate(271.07779 181.726437) scale(0.1 -0.1)">
       <defs>
        <path id="DejaVuSans-31" d="M 794 531 
L 1825 531 
L 1825 4091 
L 703 3866 
L 703 4441 
L 1819 4666 
L 2450 4666 
L 2450 531 
L 3481 531 
L 3481 0 
L 794 0 
L 794 531 
z
" transform="scale(0.015625)"/>
        <path id="DejaVuSans-30" d="M 2034 4250 
Q 1547 4250 1301 3770 
Q 1056 3291 1056 2328 
Q 1056 1369 1301 889 
Q 1547 409 2034 409 
Q 2525 409 2770 889 
Q 3016 1369 3016 2328 
Q 3016 3291 2770 3770 
Q 2525 4250 2034 4250 
z
M 2034 4750 
Q 2819 4750 3233 4129 
Q 3647 3509 3647 2328 
Q 3647 1150 3233 529 
Q 2819 -91 2034 -91 
Q 1250 -91 836 529 
Q 422 1150 422 2328 
Q 422 3509 836 4129 
Q 1250 4750 2034 4750 
z
" transform="scale(0.015625)"/>
       </defs>
       <use xlink:href="#DejaVuSans-32" transform="translate(0 0.765625)"/>
       <use xlink:href="#DejaVuSans-31" transform="translate(64.580078 39.046875) scale(0.7)"/>
       <use xlink:href="#DejaVuSans-30" transform="translate(109.116211 39.046875) scale(0.7)"/>
      </g>
     </g>
    </g>
    <g id="xtick_6">
     <g id="line2d_6">
      <g>
       <use xlink:href="#m6f450016a3" x="331.621608" y="167.128" style="stroke: #000000; stroke-width: 0.8"/>
      </g>
     </g>
     <g id="text_6">
      <!-- $\mathdefault{2^{11}}$ -->
      <g transform="translate(323.771608 181.726437) scale(0.1 -0.1)">
       <use xlink:href="#DejaVuSans-32" transform="translate(0 0.684375)"/>
       <use xlink:href="#DejaVuSans-31" transform="translate(64.580078 38.965625) scale(0.7)"/>
       <use xlink:href="#DejaVuSans-31" transform="translate(109.116211 38.965625) scale(0.7)"/>
      </g>
     </g>
    </g>
    <g id="text_7">
     <!-- Network size -->
     <g transform="translate(167.726906 195.404562) scale(0.1 -0.1)">
      <defs>
       <path id="DejaVuSans-4e" d="M 628 4666 
L 1478 4666 
L 3547 763 
L 3547 4666 
L 4159 4666 
L 4159 0 
L 3309 0 
L 1241 3903 
L 1241 0 
L 628 0 
L 628 4666 
z
" transform="scale(0.015625)"/>
       <path id="DejaVuSans-65" d="M 3597 1894 
L 3597 1613 
L 953 1613 
Q 991 1019 1311 708 
Q 1631 397 2203 397 
Q 2534 397 2845 478 
Q 3156 559 3463 722 
L 3463 178 
Q 3153 47 2828 -22 
Q 2503 -91 2169 -91 
Q 1331 -91 842 396 
Q 353 884 353 1716 
Q 353 2575 817 3079 
Q 1281 3584 2069 3584 
Q 2775 3584 3186 3129 
Q 3597 2675 3597 1894 
z
M 3022 2063 
Q 3016 2534 2758 2815 
Q 2500 3097 2075 3097 
Q 1594 3097 1305 2825 
Q 1016 2553 972 2059 
L 3022 2063 
z
" transform="scale(0.015625)"/>
       <path id="DejaVuSans-74" d="M 1172 4494 
L 1172 3500 
L 2356 3500 
L 2356 3053 
L 1172 3053 
L 1172 1153 
Q 1172 725 1289 603 
Q 1406 481 1766 481 
L 2356 481 
L 2356 0 
L 1766 0 
Q 1100 0 847 248 
Q 594 497 594 1153 
L 594 3053 
L 172 3053 
L 172 3500 
L 594 3500 
L 594 4494 
L 1172 4494 
z
" transform="scale(0.015625)"/>
       <path id="DejaVuSans-77" d="M 269 3500 
L 844 3500 
L 1563 769 
L 2278 3500 
L 2956 3500 
L 3675 769 
L 4391 3500 
L 4966 3500 
L 4050 0 
L 3372 0 
L 2619 2869 
L 1863 0 
L 1184 0 
L 269 3500 
z
" transform="scale(0.015625)"/>
       <path id="DejaVuSans-6f" d="M 1959 3097 
Q 1497 3097 1228 2736 
Q 959 2375 959 1747 
Q 959 1119 1226 758 
Q 1494 397 1959 397 
Q 2419 397 2687 759 
Q 2956 1122 2956 1747 
Q 2956 2369 2687 2733 
Q 2419 3097 1959 3097 
z
M 1959 3584 
Q 2709 3584 3137 3096 
Q 3566 2609 3566 1747 
Q 3566 888 3137 398 
Q 2709 -91 1959 -91 
Q 1206 -91 779 398 
Q 353 888 353 1747 
Q 353 2609 779 3096 
Q 1206 3584 1959 3584 
z
" transform="scale(0.015625)"/>
       <path id="DejaVuSans-72" d="M 2631 2963 
Q 2534 3019 2420 3045 
Q 2306 3072 2169 3072 
Q 1681 3072 1420 2755 
Q 1159 2438 1159 1844 
L 1159 0 
L 581 0 
L 581 3500 
L 1159 3500 
L 1159 2956 
Q 1341 3275 1631 3429 
Q 1922 3584 2338 3584 
Q 2397 3584 2469 3576 
Q 2541 3569 2628 3553 
L 2631 2963 
z
" transform="scale(0.015625)"/>
       <path id="DejaVuSans-6b" d="M 581 4863 
L 1159 4863 
L 1159 1991 
L 2875 3500 
L 3609 3500 
L 1753 1863 
L 3688 0 
L 2938 0 
L 1159 1709 
L 1159 0 
L 581 0 
L 581 4863 
z
" transform="scale(0.015625)"/>
       <path id="DejaVuSans-20" transform="scale(0.015625)"/>
       <path id="DejaVuSans-73" d="M 2834 3397 
L 2834 2853 
Q 2591 2978 2328 3040 
Q 2066 3103 1784 3103 
Q 1356 3103 1142 2972 
Q 928 2841 928 2578 
Q 928 2378 1081 2264 
Q 1234 2150 1697 2047 
L 1894 2003 
Q 2506 1872 2764 1633 
Q 3022 1394 3022 966 
Q 3022 478 2636 193 
Q 2250 -91 1575 -91 
Q 1294 -91 989 -36 
Q 684 19 347 128 
L 347 722 
Q 666 556 975 473 
Q 1284 391 1588 391 
Q 1994 391 2212 530 
Q 2431 669 2431 922 
Q 2431 1156 2273 1281 
Q 2116 1406 1581 1522 
L 1381 1569 
Q 847 1681 609 1914 
Q 372 2147 372 2553 
Q 372 3047 722 3315 
Q 1072 3584 1716 3584 
Q 2034 3584 2315 3537 
Q 2597 3491 2834 3397 
z
" transform="scale(0.015625)"/>
       <path id="DejaVuSans-69" d="M 603 3500 
L 1178 3500 
L 1178 0 
L 603 0 
L 603 3500 
z
M 603 4863 
L 1178 4863 
L 1178 4134 
L 603 4134 
L 603 4863 
z
" transform="scale(0.015625)"/>
       <path id="DejaVuSans-7a" d="M 353 3500 
L 3084 3500 
L 3084 2975 
L 922 459 
L 3084 459 
L 3084 0 
L 275 0 
L 275 525 
L 2438 3041 
L 353 3041 
L 353 3500 
z
" transform="scale(0.015625)"/>
      </defs>
      <use xlink:href="#DejaVuSans-4e"/>
      <use xlink:href="#DejaVuSans-65" transform="translate(74.804688 0)"/>
      <use xlink:href="#DejaVuSans-74" transform="translate(136.328125 0)"/>
      <use xlink:href="#DejaVuSans-77" transform="translate(175.537109 0)"/>
      <use xlink:href="#DejaVuSans-6f" transform="translate(257.324219 0)"/>
      <use xlink:href="#DejaVuSans-72" transform="translate(318.505859 0)"/>
      <use xlink:href="#DejaVuSans-6b" transform="translate(359.619141 0)"/>
      <use xlink:href="#DejaVuSans-20" transform="translate(417.529297 0)"/>
      <use xlink:href="#DejaVuSans-73" transform="translate(449.316406 0)"/>
      <use xlink:href="#DejaVuSans-69" transform="translate(501.416016 0)"/>
      <use xlink:href="#DejaVuSans-7a" transform="translate(529.199219 0)"/>
      <use xlink:href="#DejaVuSans-65" transform="translate(581.689453 0)"/>
     </g>
    </g>
   </g>
   <g id="matplotlib.axis_2">
    <g id="ytick_1">
     <g id="line2d_7">
      <defs>
       <path id="mc8d491406c" d="M 0 0 
L -3.5 0 
" style="stroke: #000000; stroke-width: 0.8"/>
      </defs>
      <g>
       <use xlink:href="#mc8d491406c" x="54.979063" y="164.291697" style="stroke: #000000; stroke-width: 0.8"/>
      </g>
     </g>
     <g id="text_8">
      <!-- 0.0 -->
      <g transform="translate(32.075938 168.090916) scale(0.1 -0.1)">
       <defs>
        <path id="DejaVuSans-2e" d="M 684 794 
L 1344 794 
L 1344 0 
L 684 0 
L 684 794 
z
" transform="scale(0.015625)"/>
       </defs>
       <use xlink:href="#DejaVuSans-30"/>
       <use xlink:href="#DejaVuSans-2e" transform="translate(63.623047 0)"/>
       <use xlink:href="#DejaVuSans-30" transform="translate(95.410156 0)"/>
      </g>
     </g>
    </g>
    <g id="ytick_2">
     <g id="line2d_8">
      <g>
       <use xlink:href="#mc8d491406c" x="54.979063" y="137.994557" style="stroke: #000000; stroke-width: 0.8"/>
      </g>
     </g>
     <g id="text_9">
      <!-- 0.2 -->
      <g transform="translate(32.075938 141.793776) scale(0.1 -0.1)">
       <use xlink:href="#DejaVuSans-30"/>
       <use xlink:href="#DejaVuSans-2e" transform="translate(63.623047 0)"/>
       <use xlink:href="#DejaVuSans-32" transform="translate(95.410156 0)"/>
      </g>
     </g>
    </g>
    <g id="ytick_3">
     <g id="line2d_9">
      <g>
       <use xlink:href="#mc8d491406c" x="54.979063" y="111.697417" style="stroke: #000000; stroke-width: 0.8"/>
      </g>
     </g>
     <g id="text_10">
      <!-- 0.4 -->
      <g transform="translate(32.075938 115.496636) scale(0.1 -0.1)">
       <defs>
        <path id="DejaVuSans-34" d="M 2419 4116 
L 825 1625 
L 2419 1625 
L 2419 4116 
z
M 2253 4666 
L 3047 4666 
L 3047 1625 
L 3713 1625 
L 3713 1100 
L 3047 1100 
L 3047 0 
L 2419 0 
L 2419 1100 
L 313 1100 
L 313 1709 
L 2253 4666 
z
" transform="scale(0.015625)"/>
       </defs>
       <use xlink:href="#DejaVuSans-30"/>
       <use xlink:href="#DejaVuSans-2e" transform="translate(63.623047 0)"/>
       <use xlink:href="#DejaVuSans-34" transform="translate(95.410156 0)"/>
      </g>
     </g>
    </g>
    <g id="ytick_4">
     <g id="line2d_10">
      <g>
       <use xlink:href="#mc8d491406c" x="54.979063" y="85.400278" style="stroke: #000000; stroke-width: 0.8"/>
      </g>
     </g>
     <g id="text_11">
      <!-- 0.6 -->
      <g transform="translate(32.075938 89.199496) scale(0.1 -0.1)">
       <use xlink:href="#DejaVuSans-30"/>
       <use xlink:href="#DejaVuSans-2e" transform="translate(63.623047 0)"/>
       <use xlink:href="#DejaVuSans-36" transform="translate(95.410156 0)"/>
      </g>
     </g>
    </g>
    <g id="ytick_5">
     <g id="line2d_11">
      <g>
       <use xlink:href="#mc8d491406c" x="54.979063" y="59.103138" style="stroke: #000000; stroke-width: 0.8"/>
      </g>
     </g>
     <g id="text_12">
      <!-- 0.8 -->
      <g transform="translate(32.075938 62.902357) scale(0.1 -0.1)">
       <use xlink:href="#DejaVuSans-30"/>
       <use xlink:href="#DejaVuSans-2e" transform="translate(63.623047 0)"/>
       <use xlink:href="#DejaVuSans-38" transform="translate(95.410156 0)"/>
      </g>
     </g>
    </g>
    <g id="ytick_6">
     <g id="line2d_12">
      <g>
       <use xlink:href="#mc8d491406c" x="54.979063" y="32.805998" style="stroke: #000000; stroke-width: 0.8"/>
      </g>
     </g>
     <g id="text_13">
      <!-- 1.0 -->
      <g transform="translate(32.075938 36.605217) scale(0.1 -0.1)">
       <use xlink:href="#DejaVuSans-31"/>
       <use xlink:href="#DejaVuSans-2e" transform="translate(63.623047 0)"/>
       <use xlink:href="#DejaVuSans-30" transform="translate(95.410156 0)"/>
      </g>
     </g>
    </g>
    <g id="text_14">
     <!-- % of network with -->
     <g transform="translate(14.798438 132.413219) rotate(-90) scale(0.1 -0.1)">
      <defs>
       <path id="DejaVuSans-25" d="M 4653 2053 
Q 4381 2053 4226 1822 
Q 4072 1591 4072 1178 
Q 4072 772 4226 539 
Q 4381 306 4653 306 
Q 4919 306 5073 539 
Q 5228 772 5228 1178 
Q 5228 1588 5073 1820 
Q 4919 2053 4653 2053 
z
M 4653 2450 
Q 5147 2450 5437 2106 
Q 5728 1763 5728 1178 
Q 5728 594 5436 251 
Q 5144 -91 4653 -91 
Q 4153 -91 3862 251 
Q 3572 594 3572 1178 
Q 3572 1766 3864 2108 
Q 4156 2450 4653 2450 
z
M 1428 4353 
Q 1159 4353 1004 4120 
Q 850 3888 850 3481 
Q 850 3069 1003 2837 
Q 1156 2606 1428 2606 
Q 1700 2606 1854 2837 
Q 2009 3069 2009 3481 
Q 2009 3884 1853 4118 
Q 1697 4353 1428 4353 
z
M 4250 4750 
L 4750 4750 
L 1831 -91 
L 1331 -91 
L 4250 4750 
z
M 1428 4750 
Q 1922 4750 2215 4408 
Q 2509 4066 2509 3481 
Q 2509 2891 2217 2550 
Q 1925 2209 1428 2209 
Q 931 2209 642 2551 
Q 353 2894 353 3481 
Q 353 4063 643 4406 
Q 934 4750 1428 4750 
z
" transform="scale(0.015625)"/>
       <path id="DejaVuSans-66" d="M 2375 4863 
L 2375 4384 
L 1825 4384 
Q 1516 4384 1395 4259 
Q 1275 4134 1275 3809 
L 1275 3500 
L 2222 3500 
L 2222 3053 
L 1275 3053 
L 1275 0 
L 697 0 
L 697 3053 
L 147 3053 
L 147 3500 
L 697 3500 
L 697 3744 
Q 697 4328 969 4595 
Q 1241 4863 1831 4863 
L 2375 4863 
z
" transform="scale(0.015625)"/>
       <path id="DejaVuSans-6e" d="M 3513 2113 
L 3513 0 
L 2938 0 
L 2938 2094 
Q 2938 2591 2744 2837 
Q 2550 3084 2163 3084 
Q 1697 3084 1428 2787 
Q 1159 2491 1159 1978 
L 1159 0 
L 581 0 
L 581 3500 
L 1159 3500 
L 1159 2956 
Q 1366 3272 1645 3428 
Q 1925 3584 2291 3584 
Q 2894 3584 3203 3211 
Q 3513 2838 3513 2113 
z
" transform="scale(0.015625)"/>
       <path id="DejaVuSans-68" d="M 3513 2113 
L 3513 0 
L 2938 0 
L 2938 2094 
Q 2938 2591 2744 2837 
Q 2550 3084 2163 3084 
Q 1697 3084 1428 2787 
Q 1159 2491 1159 1978 
L 1159 0 
L 581 0 
L 581 4863 
L 1159 4863 
L 1159 2956 
Q 1366 3272 1645 3428 
Q 1925 3584 2291 3584 
Q 2894 3584 3203 3211 
Q 3513 2838 3513 2113 
z
" transform="scale(0.015625)"/>
      </defs>
      <use xlink:href="#DejaVuSans-25"/>
      <use xlink:href="#DejaVuSans-20" transform="translate(95.019531 0)"/>
      <use xlink:href="#DejaVuSans-6f" transform="translate(126.806641 0)"/>
      <use xlink:href="#DejaVuSans-66" transform="translate(187.988281 0)"/>
      <use xlink:href="#DejaVuSans-20" transform="translate(223.193359 0)"/>
      <use xlink:href="#DejaVuSans-6e" transform="translate(254.980469 0)"/>
      <use xlink:href="#DejaVuSans-65" transform="translate(318.359375 0)"/>
      <use xlink:href="#DejaVuSans-74" transform="translate(379.882812 0)"/>
      <use xlink:href="#DejaVuSans-77" transform="translate(419.091797 0)"/>
      <use xlink:href="#DejaVuSans-6f" transform="translate(500.878906 0)"/>
      <use xlink:href="#DejaVuSans-72" transform="translate(562.060547 0)"/>
      <use xlink:href="#DejaVuSans-6b" transform="translate(603.173828 0)"/>
      <use xlink:href="#DejaVuSans-20" transform="translate(661.083984 0)"/>
      <use xlink:href="#DejaVuSans-77" transform="translate(692.871094 0)"/>
      <use xlink:href="#DejaVuSans-69" transform="translate(774.658203 0)"/>
      <use xlink:href="#DejaVuSans-74" transform="translate(802.441406 0)"/>
      <use xlink:href="#DejaVuSans-68" transform="translate(841.650391 0)"/>
     </g>
     <!-- "fewer friends than their friends" -->
     <g transform="translate(25.99625 169.647594) rotate(-90) scale(0.1 -0.1)">
      <defs>
       <path id="DejaVuSans-22" d="M 1147 4666 
L 1147 2931 
L 616 2931 
L 616 4666 
L 1147 4666 
z
M 2328 4666 
L 2328 2931 
L 1797 2931 
L 1797 4666 
L 2328 4666 
z
" transform="scale(0.015625)"/>
       <path id="DejaVuSans-64" d="M 2906 2969 
L 2906 4863 
L 3481 4863 
L 3481 0 
L 2906 0 
L 2906 525 
Q 2725 213 2448 61 
Q 2172 -91 1784 -91 
Q 1150 -91 751 415 
Q 353 922 353 1747 
Q 353 2572 751 3078 
Q 1150 3584 1784 3584 
Q 2172 3584 2448 3432 
Q 2725 3281 2906 2969 
z
M 947 1747 
Q 947 1113 1208 752 
Q 1469 391 1925 391 
Q 2381 391 2643 752 
Q 2906 1113 2906 1747 
Q 2906 2381 2643 2742 
Q 2381 3103 1925 3103 
Q 1469 3103 1208 2742 
Q 947 2381 947 1747 
z
" transform="scale(0.015625)"/>
       <path id="DejaVuSans-61" d="M 2194 1759 
Q 1497 1759 1228 1600 
Q 959 1441 959 1056 
Q 959 750 1161 570 
Q 1363 391 1709 391 
Q 2188 391 2477 730 
Q 2766 1069 2766 1631 
L 2766 1759 
L 2194 1759 
z
M 3341 1997 
L 3341 0 
L 2766 0 
L 2766 531 
Q 2569 213 2275 61 
Q 1981 -91 1556 -91 
Q 1019 -91 701 211 
Q 384 513 384 1019 
Q 384 1609 779 1909 
Q 1175 2209 1959 2209 
L 2766 2209 
L 2766 2266 
Q 2766 2663 2505 2880 
Q 2244 3097 1772 3097 
Q 1472 3097 1187 3025 
Q 903 2953 641 2809 
L 641 3341 
Q 956 3463 1253 3523 
Q 1550 3584 1831 3584 
Q 2591 3584 2966 3190 
Q 3341 2797 3341 1997 
z
" transform="scale(0.015625)"/>
      </defs>
      <use xlink:href="#DejaVuSans-22"/>
      <use xlink:href="#DejaVuSans-66" transform="translate(45.996094 0)"/>
      <use xlink:href="#DejaVuSans-65" transform="translate(81.201172 0)"/>
      <use xlink:href="#DejaVuSans-77" transform="translate(142.724609 0)"/>
      <use xlink:href="#DejaVuSans-65" transform="translate(224.511719 0)"/>
      <use xlink:href="#DejaVuSans-72" transform="translate(286.035156 0)"/>
      <use xlink:href="#DejaVuSans-20" transform="translate(327.148438 0)"/>
      <use xlink:href="#DejaVuSans-66" transform="translate(358.935547 0)"/>
      <use xlink:href="#DejaVuSans-72" transform="translate(394.140625 0)"/>
      <use xlink:href="#DejaVuSans-69" transform="translate(435.253906 0)"/>
      <use xlink:href="#DejaVuSans-65" transform="translate(463.037109 0)"/>
      <use xlink:href="#DejaVuSans-6e" transform="translate(524.560547 0)"/>
      <use xlink:href="#DejaVuSans-64" transform="translate(587.939453 0)"/>
      <use xlink:href="#DejaVuSans-73" transform="translate(651.416016 0)"/>
      <use xlink:href="#DejaVuSans-20" transform="translate(703.515625 0)"/>
      <use xlink:href="#DejaVuSans-74" transform="translate(735.302734 0)"/>
      <use xlink:href="#DejaVuSans-68" transform="translate(774.511719 0)"/>
      <use xlink:href="#DejaVuSans-61" transform="translate(837.890625 0)"/>
      <use xlink:href="#DejaVuSans-6e" transform="translate(899.169922 0)"/>
      <use xlink:href="#DejaVuSans-20" transform="translate(962.548828 0)"/>
      <use xlink:href="#DejaVuSans-74" transform="translate(994.335938 0)"/>
      <use xlink:href="#DejaVuSans-68" transform="translate(1033.544922 0)"/>
      <use xlink:href="#DejaVuSans-65" transform="translate(1096.923828 0)"/>
      <use xlink:href="#DejaVuSans-69" transform="translate(1158.447266 0)"/>
      <use xlink:href="#DejaVuSans-72" transform="translate(1186.230469 0)"/>
      <use xlink:href="#DejaVuSans-20" transform="translate(1227.34375 0)"/>
      <use xlink:href="#DejaVuSans-66" transform="translate(1259.130859 0)"/>
      <use xlink:href="#DejaVuSans-72" transform="translate(1294.335938 0)"/>
      <use xlink:href="#DejaVuSans-69" transform="translate(1335.449219 0)"/>
      <use xlink:href="#DejaVuSans-65" transform="translate(1363.232422 0)"/>
      <use xlink:href="#DejaVuSans-6e" transform="translate(1424.755859 0)"/>
      <use xlink:href="#DejaVuSans-64" transform="translate(1488.134766 0)"/>
      <use xlink:href="#DejaVuSans-73" transform="translate(1551.611328 0)"/>
      <use xlink:href="#DejaVuSans-22" transform="translate(1603.710938 0)"/>
     </g>
    </g>
   </g>
   <g id="line2d_13">
    <path d="M 68.152517 89.157012 
L 72.761268 90.814395 
L 78.155098 86.841217 
L 84.159885 85.352724 
L 88.82522 86.47363 
L 94.910155 83.996663 
L 99.764215 88.76972 
L 105.78884 87.725875 
L 110.695131 84.964228 
L 115.940045 87.435175 
L 121.437942 87.409694 
L 127.113794 88.886743 
L 132.395161 85.879324 
L 137.809956 85.752471 
L 143.307853 87.518901 
L 148.434814 86.298627 
L 154.009539 87.544272 
L 159.203243 86.587547 
L 164.73449 87.015014 
L 170.201364 87.700319 
L 175.590944 88.299962 
L 180.893647 88.357707 
L 186.353919 87.793181 
L 191.682419 88.636849 
L 197.098676 88.618798 
L 202.561104 89.106922 
L 207.846553 89.998072 
L 213.318058 90.070107 
L 218.586433 90.576944 
L 223.973514 90.479806 
L 229.432272 90.669555 
L 234.790991 90.861638 
L 240.168462 90.317629 
L 245.536888 91.006919 
L 250.873893 91.199869 
L 256.261839 91.257817 
L 261.66663 91.758182 
L 267.06046 91.236939 
L 272.420996 92.03451 
L 277.805963 92.247289 
L 283.186374 92.435049 
L 288.604239 92.451826 
L 293.966722 92.739154 
L 299.317149 93.126974 
L 304.686865 93.117661 
L 310.097361 93.149912 
L 315.470265 93.092962 
L 320.831388 93.480322 
L 326.238695 93.754483 
L 331.621608 93.834586 
" clip-path="url(#pf4231c4f82)" style="fill: none; stroke: #1f77b4; stroke-width: 1.5; stroke-linecap: square"/>
   </g>
   <g id="line2d_14">
    <path d="M 68.152517 102.364281 
L 72.761268 101.034922 
L 78.155098 108.197994 
L 84.159885 104.136395 
L 88.82522 104.362841 
L 94.910155 106.289371 
L 99.764215 105.810576 
L 105.78884 103.826165 
L 110.695131 103.244765 
L 115.940045 103.557827 
L 121.437942 104.737266 
L 127.113794 107.129877 
L 132.395161 105.54545 
L 137.809956 101.953388 
L 143.307853 105.101291 
L 148.434814 106.511491 
L 154.009539 108.509885 
L 159.203243 104.839605 
L 164.73449 105.551532 
L 170.201364 106.023982 
L 175.590944 104.869589 
L 180.893647 103.877549 
L 186.353919 107.072791 
L 191.682419 107.998479 
L 197.098676 105.89547 
L 202.561104 104.684847 
L 207.846553 104.249365 
L 213.318058 104.940513 
L 218.586433 107.007585 
L 223.973514 105.106125 
L 229.432272 104.915598 
L 234.790991 105.908244 
L 240.168462 106.321928 
L 245.536888 106.033856 
L 250.873893 107.648846 
L 256.261839 105.518578 
L 261.66663 104.326668 
L 267.06046 105.925084 
L 272.420996 105.382907 
L 277.805963 105.483355 
L 283.186374 105.339067 
L 288.604239 106.729354 
L 293.966722 105.442214 
L 299.317149 106.31342 
L 304.686865 105.83618 
L 310.097361 104.8121 
L 315.470265 105.61541 
L 320.831388 106.207131 
L 326.238695 105.735472 
L 331.621608 105.363431 
" clip-path="url(#pf4231c4f82)" style="fill: none; stroke: #ff7f0e; stroke-width: 1.5; stroke-linecap: square"/>
   </g>
   <g id="line2d_15">
    <path d="M 68.152517 73.308289 
L 72.761268 75.621719 
L 78.155098 73.975689 
L 84.159885 75.1287 
L 88.82522 72.609492 
L 94.910155 73.882378 
L 99.764215 72.309802 
L 105.78884 75.918996 
L 110.695131 70.876475 
L 115.940045 71.155994 
L 121.437942 71.247 
L 127.113794 71.724684 
L 132.395161 72.012184 
L 137.809956 73.425687 
L 143.307853 71.574622 
L 148.434814 71.802533 
L 154.009539 71.701479 
L 159.203243 72.854203 
L 164.73449 70.785263 
L 170.201364 72.213374 
L 175.590944 70.659024 
L 180.893647 70.839602 
L 186.353919 71.551195 
L 191.682419 70.9513 
L 197.098676 70.211876 
L 202.561104 71.224867 
L 207.846553 71.027498 
L 213.318058 70.764667 
L 218.586433 70.941313 
L 223.973514 70.864664 
L 229.432272 70.795446 
L 234.790991 70.799497 
L 240.168462 70.862021 
L 245.536888 70.1172 
L 250.873893 70.957014 
L 256.261839 70.941794 
L 261.66663 69.682764 
L 267.06046 70.737864 
L 272.420996 70.233462 
L 277.805963 70.652583 
L 283.186374 70.355997 
L 288.604239 70.599455 
L 293.966722 70.328188 
L 299.317149 70.359312 
L 304.686865 69.706697 
L 310.097361 70.543769 
L 315.470265 70.407369 
L 320.831388 70.013946 
L 326.238695 69.950019 
L 331.621608 70.116533 
" clip-path="url(#pf4231c4f82)" style="fill: none; stroke: #2ca02c; stroke-width: 1.5; stroke-linecap: square"/>
   </g>
   <g id="line2d_16">
    <path d="M 68.152517 18.42475 
L 72.761268 27.83385 
L 78.155098 36.151035 
L 84.159885 48.023149 
L 88.82522 55.391127 
L 94.910155 62.736024 
L 99.764215 68.824172 
L 105.78884 77.529025 
L 110.695131 81.945424 
L 115.940045 86.182931 
L 121.437942 91.632379 
L 127.113794 98.751549 
L 132.395161 102.141697 
L 137.809956 106.884102 
L 143.307853 110.780075 
L 148.434814 114.474134 
L 154.009539 118.186322 
L 159.203243 121.231017 
L 164.73449 123.511358 
L 170.201364 126.11101 
L 175.590944 129.224083 
L 180.893647 131.187142 
L 186.353919 133.357532 
L 191.682419 135.682721 
L 197.098676 138.242136 
L 202.561104 139.597431 
L 207.846553 140.788745 
L 213.318058 142.812221 
L 218.586433 144.209802 
L 223.973514 145.885967 
L 229.432272 146.985393 
L 234.790991 148.097747 
L 240.168462 149.26476 
L 245.536888 150.545465 
L 250.873893 151.079454 
L 256.261839 152.230603 
L 261.66663 152.897191 
L 267.06046 153.656194 
L 272.420996 154.440261 
L 277.805963 155.374573 
L 283.186374 155.793083 
L 288.604239 156.65225 
L 293.966722 156.841443 
L 299.317149 157.305686 
L 304.686865 157.860544 
L 310.097361 158.278001 
L 315.470265 158.745069 
L 320.831388 159.133322 
L 326.238695 159.448109 
L 331.621608 159.751698 
" clip-path="url(#pf4231c4f82)" style="fill: none; stroke: #d62728; stroke-width: 1.5; stroke-linecap: square"/>
   </g>
   <g id="patch_3">
    <path d="M 54.979063 167.128 
L 54.979063 7.2 
" style="fill: none; stroke: #000000; stroke-width: 0.8; stroke-linejoin: miter; stroke-linecap: square"/>
   </g>
   <g id="patch_4">
    <path d="M 344.795062 167.128 
L 344.795062 7.2 
" style="fill: none; stroke: #000000; stroke-width: 0.8; stroke-linejoin: miter; stroke-linecap: square"/>
   </g>
   <g id="patch_5">
    <path d="M 54.979062 167.128 
L 344.795062 167.128 
" style="fill: none; stroke: #000000; stroke-width: 0.8; stroke-linejoin: miter; stroke-linecap: square"/>
   </g>
   <g id="patch_6">
    <path d="M 54.979062 7.2 
L 344.795062 7.2 
" style="fill: none; stroke: #000000; stroke-width: 0.8; stroke-linejoin: miter; stroke-linecap: square"/>
   </g>
   <g id="legend_1">
    <g id="patch_7">
     <path d="M 226.951312 74.3125 
L 337.795062 74.3125 
Q 339.795062 74.3125 339.795062 72.3125 
L 339.795062 14.2 
Q 339.795062 12.2 337.795062 12.2 
L 226.951312 12.2 
Q 224.951312 12.2 224.951312 14.2 
L 224.951312 72.3125 
Q 224.951312 74.3125 226.951312 74.3125 
z
" style="fill: #ffffff; opacity: 0.8; stroke: #cccccc; stroke-linejoin: miter"/>
    </g>
    <g id="line2d_17">
     <path d="M 228.951312 20.698438 
L 238.951312 20.698438 
L 248.951312 20.698438 
" style="fill: none; stroke: #1f77b4; stroke-width: 1.5; stroke-linecap: square"/>
    </g>
    <g id="text_15">
     <!-- Erdős–Rényi -->
     <g transform="translate(256.951312 24.198438) scale(0.1 -0.1)">
      <defs>
       <path id="DejaVuSans-45" d="M 628 4666 
L 3578 4666 
L 3578 4134 
L 1259 4134 
L 1259 2753 
L 3481 2753 
L 3481 2222 
L 1259 2222 
L 1259 531 
L 3634 531 
L 3634 0 
L 628 0 
L 628 4666 
z
" transform="scale(0.015625)"/>
       <path id="DejaVuSans-151" d="M 2892 5119 
L 3448 5119 
L 2673 3944 
L 2251 3944 
L 2892 5119 
z
M 1848 5119 
L 2379 5119 
L 1682 3944 
L 1254 3944 
L 1848 5119 
z
M 1959 3097 
Q 1497 3097 1228 2736 
Q 959 2375 959 1747 
Q 959 1119 1226 758 
Q 1494 397 1959 397 
Q 2419 397 2687 759 
Q 2956 1122 2956 1747 
Q 2956 2369 2687 2733 
Q 2419 3097 1959 3097 
z
M 1959 3584 
Q 2709 3584 3137 3096 
Q 3566 2609 3566 1747 
Q 3566 888 3137 398 
Q 2709 -91 1959 -91 
Q 1206 -91 779 398 
Q 353 888 353 1747 
Q 353 2609 779 3096 
Q 1206 3584 1959 3584 
z
" transform="scale(0.015625)"/>
       <path id="DejaVuSans-2013" d="M 313 1978 
L 2888 1978 
L 2888 1528 
L 313 1528 
L 313 1978 
z
" transform="scale(0.015625)"/>
       <path id="DejaVuSans-52" d="M 2841 2188 
Q 3044 2119 3236 1894 
Q 3428 1669 3622 1275 
L 4263 0 
L 3584 0 
L 2988 1197 
Q 2756 1666 2539 1819 
Q 2322 1972 1947 1972 
L 1259 1972 
L 1259 0 
L 628 0 
L 628 4666 
L 2053 4666 
Q 2853 4666 3247 4331 
Q 3641 3997 3641 3322 
Q 3641 2881 3436 2590 
Q 3231 2300 2841 2188 
z
M 1259 4147 
L 1259 2491 
L 2053 2491 
Q 2509 2491 2742 2702 
Q 2975 2913 2975 3322 
Q 2975 3731 2742 3939 
Q 2509 4147 2053 4147 
L 1259 4147 
z
" transform="scale(0.015625)"/>
       <path id="DejaVuSans-e9" d="M 3597 1894 
L 3597 1613 
L 953 1613 
Q 991 1019 1311 708 
Q 1631 397 2203 397 
Q 2534 397 2845 478 
Q 3156 559 3463 722 
L 3463 178 
Q 3153 47 2828 -22 
Q 2503 -91 2169 -91 
Q 1331 -91 842 396 
Q 353 884 353 1716 
Q 353 2575 817 3079 
Q 1281 3584 2069 3584 
Q 2775 3584 3186 3129 
Q 3597 2675 3597 1894 
z
M 3022 2063 
Q 3016 2534 2758 2815 
Q 2500 3097 2075 3097 
Q 1594 3097 1305 2825 
Q 1016 2553 972 2059 
L 3022 2063 
z
M 2466 5119 
L 3088 5119 
L 2070 3944 
L 1591 3944 
L 2466 5119 
z
" transform="scale(0.015625)"/>
       <path id="DejaVuSans-79" d="M 2059 -325 
Q 1816 -950 1584 -1140 
Q 1353 -1331 966 -1331 
L 506 -1331 
L 506 -850 
L 844 -850 
Q 1081 -850 1212 -737 
Q 1344 -625 1503 -206 
L 1606 56 
L 191 3500 
L 800 3500 
L 1894 763 
L 2988 3500 
L 3597 3500 
L 2059 -325 
z
" transform="scale(0.015625)"/>
      </defs>
      <use xlink:href="#DejaVuSans-45"/>
      <use xlink:href="#DejaVuSans-72" transform="translate(63.183594 0)"/>
      <use xlink:href="#DejaVuSans-64" transform="translate(102.546875 0)"/>
      <use xlink:href="#DejaVuSans-151" transform="translate(166.023438 0)"/>
      <use xlink:href="#DejaVuSans-73" transform="translate(227.205078 0)"/>
      <use xlink:href="#DejaVuSans-2013" transform="translate(279.304688 0)"/>
      <use xlink:href="#DejaVuSans-52" transform="translate(329.304688 0)"/>
      <use xlink:href="#DejaVuSans-e9" transform="translate(394.287109 0)"/>
      <use xlink:href="#DejaVuSans-6e" transform="translate(455.810547 0)"/>
      <use xlink:href="#DejaVuSans-79" transform="translate(519.189453 0)"/>
      <use xlink:href="#DejaVuSans-69" transform="translate(578.369141 0)"/>
     </g>
    </g>
    <g id="line2d_18">
     <path d="M 228.951312 35.376563 
L 238.951312 35.376563 
L 248.951312 35.376563 
" style="fill: none; stroke: #ff7f0e; stroke-width: 1.5; stroke-linecap: square"/>
    </g>
    <g id="text_16">
     <!-- Watts–Strogatz -->
     <g transform="translate(256.951312 38.876563) scale(0.1 -0.1)">
      <defs>
       <path id="DejaVuSans-57" d="M 213 4666 
L 850 4666 
L 1831 722 
L 2809 4666 
L 3519 4666 
L 4500 722 
L 5478 4666 
L 6119 4666 
L 4947 0 
L 4153 0 
L 3169 4050 
L 2175 0 
L 1381 0 
L 213 4666 
z
" transform="scale(0.015625)"/>
       <path id="DejaVuSans-53" d="M 3425 4513 
L 3425 3897 
Q 3066 4069 2747 4153 
Q 2428 4238 2131 4238 
Q 1616 4238 1336 4038 
Q 1056 3838 1056 3469 
Q 1056 3159 1242 3001 
Q 1428 2844 1947 2747 
L 2328 2669 
Q 3034 2534 3370 2195 
Q 3706 1856 3706 1288 
Q 3706 609 3251 259 
Q 2797 -91 1919 -91 
Q 1588 -91 1214 -16 
Q 841 59 441 206 
L 441 856 
Q 825 641 1194 531 
Q 1563 422 1919 422 
Q 2459 422 2753 634 
Q 3047 847 3047 1241 
Q 3047 1584 2836 1778 
Q 2625 1972 2144 2069 
L 1759 2144 
Q 1053 2284 737 2584 
Q 422 2884 422 3419 
Q 422 4038 858 4394 
Q 1294 4750 2059 4750 
Q 2388 4750 2728 4690 
Q 3069 4631 3425 4513 
z
" transform="scale(0.015625)"/>
       <path id="DejaVuSans-67" d="M 2906 1791 
Q 2906 2416 2648 2759 
Q 2391 3103 1925 3103 
Q 1463 3103 1205 2759 
Q 947 2416 947 1791 
Q 947 1169 1205 825 
Q 1463 481 1925 481 
Q 2391 481 2648 825 
Q 2906 1169 2906 1791 
z
M 3481 434 
Q 3481 -459 3084 -895 
Q 2688 -1331 1869 -1331 
Q 1566 -1331 1297 -1286 
Q 1028 -1241 775 -1147 
L 775 -588 
Q 1028 -725 1275 -790 
Q 1522 -856 1778 -856 
Q 2344 -856 2625 -561 
Q 2906 -266 2906 331 
L 2906 616 
Q 2728 306 2450 153 
Q 2172 0 1784 0 
Q 1141 0 747 490 
Q 353 981 353 1791 
Q 353 2603 747 3093 
Q 1141 3584 1784 3584 
Q 2172 3584 2450 3431 
Q 2728 3278 2906 2969 
L 2906 3500 
L 3481 3500 
L 3481 434 
z
" transform="scale(0.015625)"/>
      </defs>
      <use xlink:href="#DejaVuSans-57"/>
      <use xlink:href="#DejaVuSans-61" transform="translate(92.501953 0)"/>
      <use xlink:href="#DejaVuSans-74" transform="translate(153.78125 0)"/>
      <use xlink:href="#DejaVuSans-74" transform="translate(192.990234 0)"/>
      <use xlink:href="#DejaVuSans-73" transform="translate(232.199219 0)"/>
      <use xlink:href="#DejaVuSans-2013" transform="translate(284.298828 0)"/>
      <use xlink:href="#DejaVuSans-53" transform="translate(334.298828 0)"/>
      <use xlink:href="#DejaVuSans-74" transform="translate(397.775391 0)"/>
      <use xlink:href="#DejaVuSans-72" transform="translate(436.984375 0)"/>
      <use xlink:href="#DejaVuSans-6f" transform="translate(475.847656 0)"/>
      <use xlink:href="#DejaVuSans-67" transform="translate(537.029297 0)"/>
      <use xlink:href="#DejaVuSans-61" transform="translate(600.505859 0)"/>
      <use xlink:href="#DejaVuSans-74" transform="translate(661.785156 0)"/>
      <use xlink:href="#DejaVuSans-7a" transform="translate(700.994141 0)"/>
     </g>
    </g>
    <g id="line2d_19">
     <path d="M 228.951312 50.054688 
L 238.951312 50.054688 
L 248.951312 50.054688 
" style="fill: none; stroke: #2ca02c; stroke-width: 1.5; stroke-linecap: square"/>
    </g>
    <g id="text_17">
     <!-- Barabási–Albert -->
     <g transform="translate(256.951312 53.554688) scale(0.1 -0.1)">
      <defs>
       <path id="DejaVuSans-42" d="M 1259 2228 
L 1259 519 
L 2272 519 
Q 2781 519 3026 730 
Q 3272 941 3272 1375 
Q 3272 1813 3026 2020 
Q 2781 2228 2272 2228 
L 1259 2228 
z
M 1259 4147 
L 1259 2741 
L 2194 2741 
Q 2656 2741 2882 2914 
Q 3109 3088 3109 3444 
Q 3109 3797 2882 3972 
Q 2656 4147 2194 4147 
L 1259 4147 
z
M 628 4666 
L 2241 4666 
Q 2963 4666 3353 4366 
Q 3744 4066 3744 3513 
Q 3744 3084 3544 2831 
Q 3344 2578 2956 2516 
Q 3422 2416 3680 2098 
Q 3938 1781 3938 1306 
Q 3938 681 3513 340 
Q 3088 0 2303 0 
L 628 0 
L 628 4666 
z
" transform="scale(0.015625)"/>
       <path id="DejaVuSans-62" d="M 3116 1747 
Q 3116 2381 2855 2742 
Q 2594 3103 2138 3103 
Q 1681 3103 1420 2742 
Q 1159 2381 1159 1747 
Q 1159 1113 1420 752 
Q 1681 391 2138 391 
Q 2594 391 2855 752 
Q 3116 1113 3116 1747 
z
M 1159 2969 
Q 1341 3281 1617 3432 
Q 1894 3584 2278 3584 
Q 2916 3584 3314 3078 
Q 3713 2572 3713 1747 
Q 3713 922 3314 415 
Q 2916 -91 2278 -91 
Q 1894 -91 1617 61 
Q 1341 213 1159 525 
L 1159 0 
L 581 0 
L 581 4863 
L 1159 4863 
L 1159 2969 
z
" transform="scale(0.015625)"/>
       <path id="DejaVuSans-e1" d="M 2194 1759 
Q 1497 1759 1228 1600 
Q 959 1441 959 1056 
Q 959 750 1161 570 
Q 1363 391 1709 391 
Q 2188 391 2477 730 
Q 2766 1069 2766 1631 
L 2766 1759 
L 2194 1759 
z
M 3341 1997 
L 3341 0 
L 2766 0 
L 2766 531 
Q 2569 213 2275 61 
Q 1981 -91 1556 -91 
Q 1019 -91 701 211 
Q 384 513 384 1019 
Q 384 1609 779 1909 
Q 1175 2209 1959 2209 
L 2766 2209 
L 2766 2266 
Q 2766 2663 2505 2880 
Q 2244 3097 1772 3097 
Q 1472 3097 1187 3025 
Q 903 2953 641 2809 
L 641 3341 
Q 956 3463 1253 3523 
Q 1550 3584 1831 3584 
Q 2591 3584 2966 3190 
Q 3341 2797 3341 1997 
z
M 2290 5119 
L 2912 5119 
L 1894 3944 
L 1415 3944 
L 2290 5119 
z
" transform="scale(0.015625)"/>
       <path id="DejaVuSans-41" d="M 2188 4044 
L 1331 1722 
L 3047 1722 
L 2188 4044 
z
M 1831 4666 
L 2547 4666 
L 4325 0 
L 3669 0 
L 3244 1197 
L 1141 1197 
L 716 0 
L 50 0 
L 1831 4666 
z
" transform="scale(0.015625)"/>
       <path id="DejaVuSans-6c" d="M 603 4863 
L 1178 4863 
L 1178 0 
L 603 0 
L 603 4863 
z
" transform="scale(0.015625)"/>
      </defs>
      <use xlink:href="#DejaVuSans-42"/>
      <use xlink:href="#DejaVuSans-61" transform="translate(68.603516 0)"/>
      <use xlink:href="#DejaVuSans-72" transform="translate(129.882812 0)"/>
      <use xlink:href="#DejaVuSans-61" transform="translate(170.996094 0)"/>
      <use xlink:href="#DejaVuSans-62" transform="translate(232.275391 0)"/>
      <use xlink:href="#DejaVuSans-e1" transform="translate(295.751953 0)"/>
      <use xlink:href="#DejaVuSans-73" transform="translate(357.03125 0)"/>
      <use xlink:href="#DejaVuSans-69" transform="translate(409.130859 0)"/>
      <use xlink:href="#DejaVuSans-2013" transform="translate(436.914062 0)"/>
      <use xlink:href="#DejaVuSans-41" transform="translate(486.914062 0)"/>
      <use xlink:href="#DejaVuSans-6c" transform="translate(555.322266 0)"/>
      <use xlink:href="#DejaVuSans-62" transform="translate(583.105469 0)"/>
      <use xlink:href="#DejaVuSans-65" transform="translate(646.582031 0)"/>
      <use xlink:href="#DejaVuSans-72" transform="translate(708.105469 0)"/>
      <use xlink:href="#DejaVuSans-74" transform="translate(749.21875 0)"/>
     </g>
    </g>
    <g id="line2d_20">
     <path d="M 228.951312 64.732813 
L 238.951312 64.732813 
L 248.951312 64.732813 
" style="fill: none; stroke: #d62728; stroke-width: 1.5; stroke-linecap: square"/>
    </g>
    <g id="text_18">
     <!-- Holme–Kim -->
     <g transform="translate(256.951312 68.232813) scale(0.1 -0.1)">
      <defs>
       <path id="DejaVuSans-48" d="M 628 4666 
L 1259 4666 
L 1259 2753 
L 3553 2753 
L 3553 4666 
L 4184 4666 
L 4184 0 
L 3553 0 
L 3553 2222 
L 1259 2222 
L 1259 0 
L 628 0 
L 628 4666 
z
" transform="scale(0.015625)"/>
       <path id="DejaVuSans-6d" d="M 3328 2828 
Q 3544 3216 3844 3400 
Q 4144 3584 4550 3584 
Q 5097 3584 5394 3201 
Q 5691 2819 5691 2113 
L 5691 0 
L 5113 0 
L 5113 2094 
Q 5113 2597 4934 2840 
Q 4756 3084 4391 3084 
Q 3944 3084 3684 2787 
Q 3425 2491 3425 1978 
L 3425 0 
L 2847 0 
L 2847 2094 
Q 2847 2600 2669 2842 
Q 2491 3084 2119 3084 
Q 1678 3084 1418 2786 
Q 1159 2488 1159 1978 
L 1159 0 
L 581 0 
L 581 3500 
L 1159 3500 
L 1159 2956 
Q 1356 3278 1631 3431 
Q 1906 3584 2284 3584 
Q 2666 3584 2933 3390 
Q 3200 3197 3328 2828 
z
" transform="scale(0.015625)"/>
       <path id="DejaVuSans-4b" d="M 628 4666 
L 1259 4666 
L 1259 2694 
L 3353 4666 
L 4166 4666 
L 1850 2491 
L 4331 0 
L 3500 0 
L 1259 2247 
L 1259 0 
L 628 0 
L 628 4666 
z
" transform="scale(0.015625)"/>
      </defs>
      <use xlink:href="#DejaVuSans-48"/>
      <use xlink:href="#DejaVuSans-6f" transform="translate(75.195312 0)"/>
      <use xlink:href="#DejaVuSans-6c" transform="translate(136.376953 0)"/>
      <use xlink:href="#DejaVuSans-6d" transform="translate(164.160156 0)"/>
      <use xlink:href="#DejaVuSans-65" transform="translate(261.572266 0)"/>
      <use xlink:href="#DejaVuSans-2013" transform="translate(323.095703 0)"/>
      <use xlink:href="#DejaVuSans-4b" transform="translate(373.095703 0)"/>
      <use xlink:href="#DejaVuSans-69" transform="translate(438.671875 0)"/>
      <use xlink:href="#DejaVuSans-6d" transform="translate(466.455078 0)"/>
     </g>
    </g>
   </g>
  </g>
 </g>
 <defs>
  <clipPath id="pf4231c4f82">
   <rect x="54.979063" y="7.2" width="289.816" height="159.928"/>
  </clipPath>
 </defs>
</svg>
