<svg xmlns="http://www.w3.org/2000/svg" viewBox="0 0 940 648" font-family="'Helvetica Neue', Helvetica, Arial, sans-serif">
<rect x="0" y="0" width="940" height="648" fill="#ffffff"/>
<text x="232" y="34" font-size="20" font-weight="600" fill="#1a1a1a">Frequency of GenAI usage by discipline (Spring 2026)</text>
<text x="232" y="56" font-size="12.5" fill="#666">Share of students within each discipline, by how often they use GenAI tools (n = 329)</text>
<rect x="232" y="69" width="12" height="12" rx="2" fill="#B5443A"/>
<text x="249" y="79" font-size="12" fill="#333">Never</text>
<rect x="287.6" y="69" width="12" height="12" rx="2" fill="#E0884A"/>
<text x="304.6" y="79" font-size="12" fill="#333">Once a week</text>
<rect x="383.52000000000004" y="69" width="12" height="12" rx="2" fill="#E9C85E"/>
<text x="400.52000000000004" y="79" font-size="12" fill="#333">2-3 times a week</text>
<rect x="513.0400000000001" y="69" width="12" height="12" rx="2" fill="#8FB4D4"/>
<text x="530.0400000000001" y="79" font-size="12" fill="#333">4-6 times a week</text>
<rect x="642.5600000000001" y="69" width="12" height="12" rx="2" fill="#2F5C8A"/>
<text x="659.5600000000001" y="79" font-size="12" fill="#333">Daily</text>
<line x1="232.0" y1="96" x2="232.0" y2="574" stroke="#e6e6e6" stroke-width="1"/>
<text x="232.0" y="592" font-size="11" fill="#888" text-anchor="middle">0%</text>
<line x1="364.0" y1="96" x2="364.0" y2="574" stroke="#e6e6e6" stroke-width="1"/>
<text x="364.0" y="592" font-size="11" fill="#888" text-anchor="middle">20%</text>
<line x1="496.0" y1="96" x2="496.0" y2="574" stroke="#e6e6e6" stroke-width="1"/>
<text x="496.0" y="592" font-size="11" fill="#888" text-anchor="middle">40%</text>
<line x1="628.0" y1="96" x2="628.0" y2="574" stroke="#e6e6e6" stroke-width="1"/>
<text x="628.0" y="592" font-size="11" fill="#888" text-anchor="middle">60%</text>
<line x1="760.0" y1="96" x2="760.0" y2="574" stroke="#e6e6e6" stroke-width="1"/>
<text x="760.0" y="592" font-size="11" fill="#888" text-anchor="middle">80%</text>
<line x1="892.0" y1="96" x2="892.0" y2="574" stroke="#e6e6e6" stroke-width="1"/>
<text x="892.0" y="592" font-size="11" fill="#888" text-anchor="middle">100%</text>
<text x="562.0" y="612" font-size="12" fill="#555" text-anchor="middle">Percentage of students</text>
<text x="220" y="116.0" font-size="12.5" fill="#222" text-anchor="end">Business &amp; Finance</text>
<text x="220" y="131.0" font-size="10.5" fill="#999" text-anchor="end">n = 38</text>
<rect x="232.00" y="104" width="34.74" height="30" fill="#E0884A"/>
<text x="249.37" y="123.0" font-size="11.5" font-weight="500" fill="#ffffff" text-anchor="middle">5%</text>
<rect x="266.74" y="104" width="121.58" height="30" fill="#E9C85E"/>
<text x="327.53" y="123.0" font-size="11.5" font-weight="500" fill="#5a4a12" text-anchor="middle">18%</text>
<rect x="388.32" y="104" width="208.42" height="30" fill="#8FB4D4"/>
<text x="492.53" y="123.0" font-size="11.5" font-weight="500" fill="#173347" text-anchor="middle">32%</text>
<rect x="596.74" y="104" width="295.26" height="30" fill="#2F5C8A"/>
<text x="744.37" y="123.0" font-size="11.5" font-weight="500" fill="#ffffff" text-anchor="middle">45%</text>
<rect x="232" y="104" width="660" height="30" fill="none" stroke="#ffffff" stroke-width="1"/>
<text x="220" y="164.0" font-size="12.5" fill="#222" text-anchor="end">Engineering</text>
<text x="220" y="179.0" font-size="10.5" fill="#999" text-anchor="end">n = 84</text>
<rect x="232.00" y="152" width="39.29" height="30" fill="#B5443A"/>
<text x="251.64" y="171.0" font-size="11.5" font-weight="500" fill="#ffffff" text-anchor="middle">6%</text>
<rect x="271.29" y="152" width="62.86" height="30" fill="#E0884A"/>
<text x="302.71" y="171.0" font-size="11.5" font-weight="500" fill="#ffffff" text-anchor="middle">10%</text>
<rect x="334.14" y="152" width="157.14" height="30" fill="#E9C85E"/>
<text x="412.71" y="171.0" font-size="11.5" font-weight="500" fill="#5a4a12" text-anchor="middle">24%</text>
<rect x="491.29" y="152" width="157.14" height="30" fill="#8FB4D4"/>
<text x="569.86" y="171.0" font-size="11.5" font-weight="500" fill="#173347" text-anchor="middle">24%</text>
<rect x="648.43" y="152" width="243.57" height="30" fill="#2F5C8A"/>
<text x="770.21" y="171.0" font-size="11.5" font-weight="500" fill="#ffffff" text-anchor="middle">37%</text>
<rect x="232" y="152" width="660" height="30" fill="none" stroke="#ffffff" stroke-width="1"/>
<text x="220" y="212.0" font-size="12.5" fill="#222" text-anchor="end">CS / Data / Info Science</text>
<text x="220" y="227.0" font-size="10.5" fill="#999" text-anchor="end">n = 20</text>
<rect x="232.00" y="200" width="66.00" height="30" fill="#B5443A"/>
<text x="265.00" y="219.0" font-size="11.5" font-weight="500" fill="#ffffff" text-anchor="middle">10%</text>
<rect x="298.00" y="200" width="66.00" height="30" fill="#E0884A"/>
<text x="331.00" y="219.0" font-size="11.5" font-weight="500" fill="#ffffff" text-anchor="middle">10%</text>
<rect x="364.00" y="200" width="132.00" height="30" fill="#E9C85E"/>
<text x="430.00" y="219.0" font-size="11.5" font-weight="500" fill="#5a4a12" text-anchor="middle">20%</text>
<rect x="496.00" y="200" width="264.00" height="30" fill="#8FB4D4"/>
<text x="628.00" y="219.0" font-size="11.5" font-weight="500" fill="#173347" text-anchor="middle">40%</text>
<rect x="760.00" y="200" width="132.00" height="30" fill="#2F5C8A"/>
<text x="826.00" y="219.0" font-size="11.5" font-weight="500" fill="#ffffff" text-anchor="middle">20%</text>
<rect x="232" y="200" width="660" height="30" fill="none" stroke="#ffffff" stroke-width="1"/>
<text x="220" y="260.0" font-size="12.5" fill="#222" text-anchor="end">Education</text>
<text x="220" y="275.0" font-size="10.5" fill="#999" text-anchor="end">n = 17</text>
<rect x="232.00" y="248" width="77.65" height="30" fill="#B5443A"/>
<text x="270.82" y="267.0" font-size="11.5" font-weight="500" fill="#ffffff" text-anchor="middle">12%</text>
<rect x="309.65" y="248" width="271.76" height="30" fill="#E0884A"/>
<text x="445.53" y="267.0" font-size="11.5" font-weight="500" fill="#ffffff" text-anchor="middle">41%</text>
<rect x="581.41" y="248" width="116.47" height="30" fill="#E9C85E"/>
<text x="639.65" y="267.0" font-size="11.5" font-weight="500" fill="#5a4a12" text-anchor="middle">18%</text>
<rect x="697.88" y="248" width="194.12" height="30" fill="#8FB4D4"/>
<text x="794.94" y="267.0" font-size="11.5" font-weight="500" fill="#173347" text-anchor="middle">29%</text>
<rect x="232" y="248" width="660" height="30" fill="none" stroke="#ffffff" stroke-width="1"/>
<text x="220" y="308.0" font-size="12.5" fill="#222" text-anchor="end">Physical &amp; Env. Sciences</text>
<text x="220" y="323.0" font-size="10.5" fill="#999" text-anchor="end">n = 10</text>
<rect x="232.00" y="296" width="66.00" height="30" fill="#B5443A"/>
<text x="265.00" y="315.0" font-size="11.5" font-weight="500" fill="#ffffff" text-anchor="middle">10%</text>
<rect x="298.00" y="296" width="66.00" height="30" fill="#E0884A"/>
<text x="331.00" y="315.0" font-size="11.5" font-weight="500" fill="#ffffff" text-anchor="middle">10%</text>
<rect x="364.00" y="296" width="264.00" height="30" fill="#E9C85E"/>
<text x="496.00" y="315.0" font-size="11.5" font-weight="500" fill="#5a4a12" text-anchor="middle">40%</text>
<rect x="628.00" y="296" width="132.00" height="30" fill="#8FB4D4"/>
<text x="694.00" y="315.0" font-size="11.5" font-weight="500" fill="#173347" text-anchor="middle">20%</text>
<rect x="760.00" y="296" width="132.00" height="30" fill="#2F5C8A"/>
<text x="826.00" y="315.0" font-size="11.5" font-weight="500" fill="#ffffff" text-anchor="middle">20%</text>
<rect x="232" y="296" width="660" height="30" fill="none" stroke="#ffffff" stroke-width="1"/>
<text x="220" y="356.0" font-size="12.5" fill="#222" text-anchor="end">Life Sciences &amp; Health</text>
<text x="220" y="371.0" font-size="10.5" fill="#999" text-anchor="end">n = 28</text>
<rect x="232.00" y="344" width="23.57" height="30" fill="#B5443A"/>
<rect x="255.57" y="344" width="47.14" height="30" fill="#E0884A"/>
<text x="279.14" y="363.0" font-size="11.5" font-weight="500" fill="#ffffff" text-anchor="middle">7%</text>
<rect x="302.71" y="344" width="306.43" height="30" fill="#E9C85E"/>
<text x="455.93" y="363.0" font-size="11.5" font-weight="500" fill="#5a4a12" text-anchor="middle">46%</text>
<rect x="609.14" y="344" width="165.00" height="30" fill="#8FB4D4"/>
<text x="691.64" y="363.0" font-size="11.5" font-weight="500" fill="#173347" text-anchor="middle">25%</text>
<rect x="774.14" y="344" width="117.86" height="30" fill="#2F5C8A"/>
<text x="833.07" y="363.0" font-size="11.5" font-weight="500" fill="#ffffff" text-anchor="middle">18%</text>
<rect x="232" y="344" width="660" height="30" fill="none" stroke="#ffffff" stroke-width="1"/>
<text x="220" y="404.0" font-size="12.5" fill="#222" text-anchor="end">Undeclared / Exploratory</text>
<text x="220" y="419.0" font-size="10.5" fill="#999" text-anchor="end">n = 25</text>
<rect x="232.00" y="392" width="79.20" height="30" fill="#B5443A"/>
<text x="271.60" y="411.0" font-size="11.5" font-weight="500" fill="#ffffff" text-anchor="middle">12%</text>
<rect x="311.20" y="392" width="158.40" height="30" fill="#E0884A"/>
<text x="390.40" y="411.0" font-size="11.5" font-weight="500" fill="#ffffff" text-anchor="middle">24%</text>
<rect x="469.60" y="392" width="158.40" height="30" fill="#E9C85E"/>
<text x="548.80" y="411.0" font-size="11.5" font-weight="500" fill="#5a4a12" text-anchor="middle">24%</text>
<rect x="628.00" y="392" width="132.00" height="30" fill="#8FB4D4"/>
<text x="694.00" y="411.0" font-size="11.5" font-weight="500" fill="#173347" text-anchor="middle">20%</text>
<rect x="760.00" y="392" width="132.00" height="30" fill="#2F5C8A"/>
<text x="826.00" y="411.0" font-size="11.5" font-weight="500" fill="#ffffff" text-anchor="middle">20%</text>
<rect x="232" y="392" width="660" height="30" fill="none" stroke="#ffffff" stroke-width="1"/>
<text x="220" y="452.0" font-size="12.5" fill="#222" text-anchor="end">Social Sciences</text>
<text x="220" y="467.0" font-size="10.5" fill="#999" text-anchor="end">n = 25</text>
<rect x="232.00" y="440" width="105.60" height="30" fill="#B5443A"/>
<text x="284.80" y="459.0" font-size="11.5" font-weight="500" fill="#ffffff" text-anchor="middle">16%</text>
<rect x="337.60" y="440" width="132.00" height="30" fill="#E0884A"/>
<text x="403.60" y="459.0" font-size="11.5" font-weight="500" fill="#ffffff" text-anchor="middle">20%</text>
<rect x="469.60" y="440" width="237.60" height="30" fill="#E9C85E"/>
<text x="588.40" y="459.0" font-size="11.5" font-weight="500" fill="#5a4a12" text-anchor="middle">36%</text>
<rect x="707.20" y="440" width="105.60" height="30" fill="#8FB4D4"/>
<text x="760.00" y="459.0" font-size="11.5" font-weight="500" fill="#173347" text-anchor="middle">16%</text>
<rect x="812.80" y="440" width="79.20" height="30" fill="#2F5C8A"/>
<text x="852.40" y="459.0" font-size="11.5" font-weight="500" fill="#ffffff" text-anchor="middle">12%</text>
<rect x="232" y="440" width="660" height="30" fill="none" stroke="#ffffff" stroke-width="1"/>
<text x="220" y="500.0" font-size="12.5" fill="#222" text-anchor="end">Agriculture &amp; ACES</text>
<text x="220" y="515.0" font-size="10.5" fill="#999" text-anchor="end">n = 23</text>
<rect x="232.00" y="488" width="114.78" height="30" fill="#B5443A"/>
<text x="289.39" y="507.0" font-size="11.5" font-weight="500" fill="#ffffff" text-anchor="middle">17%</text>
<rect x="346.78" y="488" width="114.78" height="30" fill="#E0884A"/>
<text x="404.17" y="507.0" font-size="11.5" font-weight="500" fill="#ffffff" text-anchor="middle">17%</text>
<rect x="461.57" y="488" width="200.87" height="30" fill="#E9C85E"/>
<text x="562.00" y="507.0" font-size="11.5" font-weight="500" fill="#5a4a12" text-anchor="middle">30%</text>
<rect x="662.43" y="488" width="57.39" height="30" fill="#8FB4D4"/>
<text x="691.13" y="507.0" font-size="11.5" font-weight="500" fill="#173347" text-anchor="middle">9%</text>
<rect x="719.83" y="488" width="172.17" height="30" fill="#2F5C8A"/>
<text x="805.91" y="507.0" font-size="11.5" font-weight="500" fill="#ffffff" text-anchor="middle">26%</text>
<rect x="232" y="488" width="660" height="30" fill="none" stroke="#ffffff" stroke-width="1"/>
<text x="220" y="548.0" font-size="12.5" fill="#222" text-anchor="end">Humanities &amp; Arts</text>
<text x="220" y="563.0" font-size="10.5" fill="#999" text-anchor="end">n = 59</text>
<rect x="232.00" y="536" width="324.41" height="30" fill="#B5443A"/>
<text x="394.20" y="555.0" font-size="11.5" font-weight="500" fill="#ffffff" text-anchor="middle">49%</text>
<rect x="556.41" y="536" width="111.86" height="30" fill="#E0884A"/>
<text x="612.34" y="555.0" font-size="11.5" font-weight="500" fill="#ffffff" text-anchor="middle">17%</text>
<rect x="668.27" y="536" width="123.05" height="30" fill="#E9C85E"/>
<text x="729.80" y="555.0" font-size="11.5" font-weight="500" fill="#5a4a12" text-anchor="middle">19%</text>
<rect x="791.32" y="536" width="55.93" height="30" fill="#8FB4D4"/>
<text x="819.29" y="555.0" font-size="11.5" font-weight="500" fill="#173347" text-anchor="middle">8%</text>
<rect x="847.25" y="536" width="44.75" height="30" fill="#2F5C8A"/>
<text x="869.63" y="555.0" font-size="11.5" font-weight="500" fill="#ffffff" text-anchor="middle">7%</text>
<rect x="232" y="536" width="660" height="30" fill="none" stroke="#ffffff" stroke-width="1"/>
</svg>