<?xml version="1.0" encoding="utf-8" standalone="no"?>
<!DOCTYPE svg PUBLIC "-//W3C//DTD SVG 1.1//EN"
  "http://www.w3.org/Graphics/SVG/1.1/DTD/svg11.dtd">
<svg xmlns:xlink="http://www.w3.org/1999/xlink" width="288pt" height="144pt" viewBox="0 0 288 144" xmlns="http://www.w3.org/2000/svg" version="1.1">
 <metadata>
  <rdf:RDF xmlns:dc="http://purl.org/dc/elements/1.1/" xmlns:cc="http://creativecommons.org/ns#" xmlns:rdf="http://www.w3.org/1999/02/22-rdf-syntax-ns#">
   <cc:Work>
    <dc:type rdf:resource="http://purl.org/dc/dcmitype/StillImage"/>
    <dc:date>2025-02-05T11:51:10.346592</dc:date>
    <dc:format>image/svg+xml</dc:format>
    <dc:creator>
     <cc:Agent>
      <dc:title>Matplotlib v3.10.0, https://matplotlib.org/</dc:title>
     </cc:Agent>
    </dc:creator>
   </cc:Work>
  </rdf:RDF>
 </metadata>
 <defs>
  <style type="text/css">*{stroke-linejoin: round; stroke-linecap: butt}</style>
 </defs>
 <g id="figure_1">
  <g id="patch_1">
   <path d="M 0 144 
L 288 144 
L 288 0 
L 0 0 
z
" style="fill: #ffffff"/>
  </g>
  <g id="axes_1">
   <g id="patch_2">
    <path d="M 45.55 101 
L 276.4 101 
L 276.4 11.6 
L 45.55 11.6 
z
" style="fill: #ffffff"/>
   </g>
   <g id="patch_3">
    <path d="M 56.043182 101 
L 62.812977 101 
L 62.812977 99.808 
L 56.043182 99.808 
z
" clip-path="url(#p41d7d2dc69)" style="fill: #375b8d"/>
   </g>
   <g id="patch_4">
    <path d="M 62.812977 101 
L 69.582771 101 
L 69.582771 97.424 
L 62.812977 97.424 
z
" clip-path="url(#p41d7d2dc69)" style="fill: #375b8d"/>
   </g>
   <g id="patch_5">
    <path d="M 69.582771 101 
L 76.352566 101 
L 76.352566 101 
L 69.582771 101 
z
" clip-path="url(#p41d7d2dc69)" style="fill: #375b8d"/>
   </g>
   <g id="patch_6">
    <path d="M 76.352566 101 
L 83.122361 101 
L 83.122361 97.424 
L 76.352566 97.424 
z
" clip-path="url(#p41d7d2dc69)" style="fill: #375b8d"/>
   </g>
   <g id="patch_7">
    <path d="M 83.122361 101 
L 89.892155 101 
L 89.892155 99.808 
L 83.122361 99.808 
z
" clip-path="url(#p41d7d2dc69)" style="fill: #375b8d"/>
   </g>
   <g id="patch_8">
    <path d="M 89.892155 101 
L 96.66195 101 
L 96.66195 97.424 
L 89.892155 97.424 
z
" clip-path="url(#p41d7d2dc69)" style="fill: #375b8d"/>
   </g>
   <g id="patch_9">
    <path d="M 96.66195 101 
L 103.431745 101 
L 103.431745 92.656 
L 96.66195 92.656 
z
" clip-path="url(#p41d7d2dc69)" style="fill: #375b8d"/>
   </g>
   <g id="patch_10">
    <path d="M 103.431745 101 
L 110.20154 101 
L 110.20154 96.232 
L 103.431745 96.232 
z
" clip-path="url(#p41d7d2dc69)" style="fill: #375b8d"/>
   </g>
   <g id="patch_11">
    <path d="M 110.20154 101 
L 116.971334 101 
L 116.971334 91.464 
L 110.20154 91.464 
z
" clip-path="url(#p41d7d2dc69)" style="fill: #375b8d"/>
   </g>
   <g id="patch_12">
    <path d="M 116.971334 101 
L 123.741129 101 
L 123.741129 95.04 
L 116.971334 95.04 
z
" clip-path="url(#p41d7d2dc69)" style="fill: #375b8d"/>
   </g>
   <g id="patch_13">
    <path d="M 123.741129 101 
L 130.510924 101 
L 130.510924 85.504 
L 123.741129 85.504 
z
" clip-path="url(#p41d7d2dc69)" style="fill: #375b8d"/>
   </g>
   <g id="patch_14">
    <path d="M 130.510924 101 
L 137.280718 101 
L 137.280718 80.736 
L 130.510924 80.736 
z
" clip-path="url(#p41d7d2dc69)" style="fill: #375b8d"/>
   </g>
   <g id="patch_15">
    <path d="M 137.280718 101 
L 144.050513 101 
L 144.050513 78.352 
L 137.280718 78.352 
z
" clip-path="url(#p41d7d2dc69)" style="fill: #375b8d"/>
   </g>
   <g id="patch_16">
    <path d="M 144.050513 101 
L 150.820308 101 
L 150.820308 71.2 
L 144.050513 71.2 
z
" clip-path="url(#p41d7d2dc69)" style="fill: #375b8d"/>
   </g>
   <g id="patch_17">
    <path d="M 150.820308 101 
L 157.590103 101 
L 157.590103 67.624 
L 150.820308 67.624 
z
" clip-path="url(#p41d7d2dc69)" style="fill: #375b8d"/>
   </g>
   <g id="patch_18">
    <path d="M 157.590103 101 
L 164.359897 101 
L 164.359897 54.512 
L 157.590103 54.512 
z
" clip-path="url(#p41d7d2dc69)" style="fill: #375b8d"/>
   </g>
   <g id="patch_19">
    <path d="M 164.359897 101 
L 171.129692 101 
L 171.129692 59.28 
L 164.359897 59.28 
z
" clip-path="url(#p41d7d2dc69)" style="fill: #375b8d"/>
   </g>
   <g id="patch_20">
    <path d="M 171.129692 101 
L 177.899487 101 
L 177.899487 40.208 
L 171.129692 40.208 
z
" clip-path="url(#p41d7d2dc69)" style="fill: #375b8d"/>
   </g>
   <g id="patch_21">
    <path d="M 177.899487 101 
L 184.669282 101 
L 184.669282 31.864 
L 177.899487 31.864 
z
" clip-path="url(#p41d7d2dc69)" style="fill: #375b8d"/>
   </g>
   <g id="patch_22">
    <path d="M 184.669282 101 
L 191.439076 101 
L 191.439076 49.744 
L 184.669282 49.744 
z
" clip-path="url(#p41d7d2dc69)" style="fill: #375b8d"/>
   </g>
   <g id="patch_23">
    <path d="M 191.439076 101 
L 198.208871 101 
L 198.208871 50.936 
L 191.439076 50.936 
z
" clip-path="url(#p41d7d2dc69)" style="fill: #375b8d"/>
   </g>
   <g id="patch_24">
    <path d="M 198.208871 101 
L 204.978666 101 
L 204.978666 42.592 
L 198.208871 42.592 
z
" clip-path="url(#p41d7d2dc69)" style="fill: #375b8d"/>
   </g>
   <g id="patch_25">
    <path d="M 204.978666 101 
L 211.74846 101 
L 211.74846 60.472 
L 204.978666 60.472 
z
" clip-path="url(#p41d7d2dc69)" style="fill: #375b8d"/>
   </g>
   <g id="patch_26">
    <path d="M 211.74846 101 
L 218.518255 101 
L 218.518255 55.704 
L 211.74846 55.704 
z
" clip-path="url(#p41d7d2dc69)" style="fill: #375b8d"/>
   </g>
   <g id="patch_27">
    <path d="M 218.518255 101 
L 225.28805 101 
L 225.28805 65.24 
L 218.518255 65.24 
z
" clip-path="url(#p41d7d2dc69)" style="fill: #375b8d"/>
   </g>
   <g id="patch_28">
    <path d="M 225.28805 101 
L 232.057845 101 
L 232.057845 84.312 
L 225.28805 84.312 
z
" clip-path="url(#p41d7d2dc69)" style="fill: #375b8d"/>
   </g>
   <g id="patch_29">
    <path d="M 232.057845 101 
L 238.827639 101 
L 238.827639 90.272 
L 232.057845 90.272 
z
" clip-path="url(#p41d7d2dc69)" style="fill: #375b8d"/>
   </g>
   <g id="patch_30">
    <path d="M 238.827639 101 
L 245.597434 101 
L 245.597434 92.656 
L 238.827639 92.656 
z
" clip-path="url(#p41d7d2dc69)" style="fill: #375b8d"/>
   </g>
   <g id="patch_31">
    <path d="M 245.597434 101 
L 252.367229 101 
L 252.367229 95.04 
L 245.597434 95.04 
z
" clip-path="url(#p41d7d2dc69)" style="fill: #375b8d"/>
   </g>
   <g id="patch_32">
    <path d="M 252.367229 101 
L 259.137023 101 
L 259.137023 95.04 
L 252.367229 95.04 
z
" clip-path="url(#p41d7d2dc69)" style="fill: #375b8d"/>
   </g>
   <g id="patch_33">
    <path d="M 259.137023 101 
L 265.906818 101 
L 265.906818 98.616 
L 259.137023 98.616 
z
" clip-path="url(#p41d7d2dc69)" style="fill: #375b8d"/>
   </g>
   <g id="matplotlib.axis_1">
    <g id="xtick_1">
     <g id="line2d_1">
      <defs>
       <path id="mb6d64b24be" d="M 0 0 
L 0 3.5 
" style="stroke: #000000; stroke-width: 0.8"/>
      </defs>
      <g>
       <use xlink:href="#mb6d64b24be" x="95.392614" y="101" style="stroke: #000000; stroke-width: 0.8"/>
      </g>
     </g>
     <g id="text_1">
      <!-- -5.0% -->
      <g transform="translate(81.000426 115.598437) scale(0.1 -0.1)">
       <defs>
        <path id="DejaVuSerif-2d" d="M 281 1959 
L 1881 1959 
L 1881 1472 
L 281 1472 
L 281 1959 
z
" transform="scale(0.015625)"/>
        <path id="DejaVuSerif-35" d="M 3219 4666 
L 3219 4153 
L 1081 4153 
L 1081 2816 
Q 1244 2928 1461 2984 
Q 1678 3041 1947 3041 
Q 2703 3041 3140 2622 
Q 3578 2203 3578 1478 
Q 3578 738 3136 323 
Q 2694 -91 1894 -91 
Q 1572 -91 1234 -12 
Q 897 66 544 225 
L 544 1131 
L 897 1131 
Q 925 688 1179 453 
Q 1434 219 1894 219 
Q 2388 219 2653 544 
Q 2919 869 2919 1478 
Q 2919 2084 2655 2407 
Q 2391 2731 1894 2731 
Q 1613 2731 1398 2631 
Q 1184 2531 1019 2322 
L 750 2322 
L 750 4666 
L 3219 4666 
z
" transform="scale(0.015625)"/>
        <path id="DejaVuSerif-2e" d="M 603 325 
Q 603 500 722 622 
Q 841 744 1019 744 
Q 1191 744 1312 622 
Q 1434 500 1434 325 
Q 1434 153 1312 31 
Q 1191 -91 1019 -91 
Q 841 -91 722 29 
Q 603 150 603 325 
z
" transform="scale(0.015625)"/>
        <path id="DejaVuSerif-30" d="M 2034 219 
Q 2513 219 2750 744 
Q 2988 1269 2988 2328 
Q 2988 3391 2750 3916 
Q 2513 4441 2034 4441 
Q 1556 4441 1318 3916 
Q 1081 3391 1081 2328 
Q 1081 1269 1318 744 
Q 1556 219 2034 219 
z
M 2034 -91 
Q 1275 -91 848 546 
Q 422 1184 422 2328 
Q 422 3475 848 4112 
Q 1275 4750 2034 4750 
Q 2797 4750 3222 4112 
Q 3647 3475 3647 2328 
Q 3647 1184 3222 546 
Q 2797 -91 2034 -91 
z
" transform="scale(0.015625)"/>
        <path id="DejaVuSerif-25" d="M 1434 4459 
Q 1159 4459 1004 4200 
Q 850 3941 850 3475 
Q 850 3016 1008 2753 
Q 1166 2491 1434 2491 
Q 1700 2491 1854 2752 
Q 2009 3013 2009 3475 
Q 2009 3938 1854 4198 
Q 1700 4459 1434 4459 
z
M 4653 2169 
Q 4381 2169 4226 1906 
Q 4072 1644 4072 1178 
Q 4072 719 4228 458 
Q 4384 197 4653 197 
Q 4922 197 5075 458 
Q 5228 719 5228 1178 
Q 5228 1641 5073 1905 
Q 4919 2169 4653 2169 
z
M 4653 2450 
Q 5147 2450 5437 2106 
Q 5728 1763 5728 1178 
Q 5728 594 5436 251 
Q 5144 -91 4653 -91 
Q 4153 -91 3862 251 
Q 3572 594 3572 1178 
Q 3572 1766 3864 2108 
Q 4156 2450 4653 2450 
z
M 4263 4750 
L 4738 4750 
L 1819 -91 
L 1344 -91 
L 4263 4750 
z
M 1428 4750 
Q 1922 4750 2215 4408 
Q 2509 4066 2509 3481 
Q 2509 2891 2217 2550 
Q 1925 2209 1428 2209 
Q 931 2209 642 2551 
Q 353 2894 353 3481 
Q 353 4063 643 4406 
Q 934 4750 1428 4750 
z
" transform="scale(0.015625)"/>
       </defs>
       <use xlink:href="#DejaVuSerif-2d"/>
       <use xlink:href="#DejaVuSerif-35" transform="translate(33.789062 0)"/>
       <use xlink:href="#DejaVuSerif-2e" transform="translate(97.412109 0)"/>
       <use xlink:href="#DejaVuSerif-30" transform="translate(129.199219 0)"/>
       <use xlink:href="#DejaVuSerif-25" transform="translate(192.822266 0)"/>
      </g>
     </g>
    </g>
    <g id="xtick_2">
     <g id="line2d_2">
      <g>
       <use xlink:href="#mb6d64b24be" x="160.975" y="101" style="stroke: #000000; stroke-width: 0.8"/>
      </g>
     </g>
     <g id="text_2">
      <!-- 0.0% -->
      <g transform="translate(148.272656 115.598437) scale(0.1 -0.1)">
       <use xlink:href="#DejaVuSerif-30"/>
       <use xlink:href="#DejaVuSerif-2e" transform="translate(63.623047 0)"/>
       <use xlink:href="#DejaVuSerif-30" transform="translate(95.410156 0)"/>
       <use xlink:href="#DejaVuSerif-25" transform="translate(159.033203 0)"/>
      </g>
     </g>
    </g>
    <g id="xtick_3">
     <g id="line2d_3">
      <g>
       <use xlink:href="#mb6d64b24be" x="226.557386" y="101" style="stroke: #000000; stroke-width: 0.8"/>
      </g>
     </g>
     <g id="text_3">
      <!-- 5.0% -->
      <g transform="translate(213.855043 115.598437) scale(0.1 -0.1)">
       <use xlink:href="#DejaVuSerif-35"/>
       <use xlink:href="#DejaVuSerif-2e" transform="translate(63.623047 0)"/>
       <use xlink:href="#DejaVuSerif-30" transform="translate(95.410156 0)"/>
       <use xlink:href="#DejaVuSerif-25" transform="translate(159.033203 0)"/>
      </g>
     </g>
    </g>
    <g id="text_4">
     <!-- Benchmark Accuracy - True Accuracy -->
     <g transform="translate(65.153125 129.276562) scale(0.1 -0.1)">
      <defs>
       <path id="DejaVuSerif-42" d="M 1581 331 
L 2516 331 
Q 3078 331 3337 575 
Q 3597 819 3597 1350 
Q 3597 1878 3339 2120 
Q 3081 2363 2516 2363 
L 1581 2363 
L 1581 331 
z
M 1581 2694 
L 2375 2694 
Q 2888 2694 3123 2891 
Q 3359 3088 3359 3513 
Q 3359 3941 3123 4136 
Q 2888 4331 2375 4331 
L 1581 4331 
L 1581 2694 
z
M 353 0 
L 353 331 
L 947 331 
L 947 4331 
L 353 4331 
L 353 4666 
L 2656 4666 
Q 3363 4666 3720 4377 
Q 4078 4088 4078 3513 
Q 4078 3097 3829 2850 
Q 3581 2603 3103 2547 
Q 3697 2472 4005 2167 
Q 4313 1863 4313 1350 
Q 4313 656 3875 328 
Q 3438 0 2509 0 
L 353 0 
z
" transform="scale(0.015625)"/>
       <path id="DejaVuSerif-65" d="M 3469 1600 
L 991 1600 
L 991 1575 
Q 991 903 1244 561 
Q 1497 219 1991 219 
Q 2369 219 2611 417 
Q 2853 616 2950 1006 
L 3413 1006 
Q 3275 459 2904 184 
Q 2534 -91 1931 -91 
Q 1203 -91 761 389 
Q 319 869 319 1663 
Q 319 2450 753 2931 
Q 1188 3413 1894 3413 
Q 2647 3413 3050 2948 
Q 3453 2484 3469 1600 
z
M 2791 1931 
Q 2772 2513 2545 2808 
Q 2319 3103 1894 3103 
Q 1497 3103 1269 2806 
Q 1041 2509 991 1931 
L 2791 1931 
z
" transform="scale(0.015625)"/>
       <path id="DejaVuSerif-6e" d="M 263 0 
L 263 331 
L 781 331 
L 781 2988 
L 231 2988 
L 231 3322 
L 1356 3322 
L 1356 2731 
Q 1516 3069 1770 3241 
Q 2025 3413 2363 3413 
Q 2913 3413 3172 3097 
Q 3431 2781 3431 2113 
L 3431 331 
L 3944 331 
L 3944 0 
L 2356 0 
L 2356 331 
L 2853 331 
L 2853 1931 
Q 2853 2541 2703 2767 
Q 2553 2994 2175 2994 
Q 1775 2994 1565 2701 
Q 1356 2409 1356 1850 
L 1356 331 
L 1856 331 
L 1856 0 
L 263 0 
z
" transform="scale(0.015625)"/>
       <path id="DejaVuSerif-63" d="M 3291 997 
Q 3169 466 2822 187 
Q 2475 -91 1925 -91 
Q 1200 -91 759 389 
Q 319 869 319 1663 
Q 319 2459 759 2936 
Q 1200 3413 1925 3413 
Q 2241 3413 2553 3339 
Q 2866 3266 3181 3116 
L 3181 2266 
L 2847 2266 
Q 2781 2703 2561 2903 
Q 2341 3103 1931 3103 
Q 1466 3103 1228 2742 
Q 991 2381 991 1663 
Q 991 944 1227 581 
Q 1463 219 1931 219 
Q 2303 219 2525 412 
Q 2747 606 2828 997 
L 3291 997 
z
" transform="scale(0.015625)"/>
       <path id="DejaVuSerif-68" d="M 263 0 
L 263 331 
L 781 331 
L 781 4531 
L 231 4531 
L 231 4863 
L 1356 4863 
L 1356 2731 
Q 1516 3069 1770 3241 
Q 2025 3413 2363 3413 
Q 2913 3413 3172 3097 
Q 3431 2781 3431 2113 
L 3431 331 
L 3944 331 
L 3944 0 
L 2356 0 
L 2356 331 
L 2853 331 
L 2853 1931 
Q 2853 2541 2704 2764 
Q 2556 2988 2175 2988 
Q 1775 2988 1565 2697 
Q 1356 2406 1356 1850 
L 1356 331 
L 1856 331 
L 1856 0 
L 263 0 
z
" transform="scale(0.015625)"/>
       <path id="DejaVuSerif-6d" d="M 3316 2675 
Q 3481 3041 3739 3227 
Q 3997 3413 4341 3413 
Q 4863 3413 5119 3089 
Q 5375 2766 5375 2113 
L 5375 331 
L 5894 331 
L 5894 0 
L 4300 0 
L 4300 331 
L 4800 331 
L 4800 2047 
Q 4800 2556 4650 2772 
Q 4500 2988 4153 2988 
Q 3769 2988 3567 2697 
Q 3366 2406 3366 1850 
L 3366 331 
L 3866 331 
L 3866 0 
L 2291 0 
L 2291 331 
L 2791 331 
L 2791 2069 
Q 2791 2566 2641 2777 
Q 2491 2988 2144 2988 
Q 1759 2988 1557 2697 
Q 1356 2406 1356 1850 
L 1356 331 
L 1856 331 
L 1856 0 
L 263 0 
L 263 331 
L 781 331 
L 781 2994 
L 231 2994 
L 231 3322 
L 1356 3322 
L 1356 2731 
Q 1516 3063 1762 3238 
Q 2009 3413 2322 3413 
Q 2709 3413 2968 3220 
Q 3228 3028 3316 2675 
z
" transform="scale(0.015625)"/>
       <path id="DejaVuSerif-61" d="M 2547 1044 
L 2547 1747 
L 1806 1747 
Q 1378 1747 1168 1562 
Q 959 1378 959 997 
Q 959 650 1171 447 
Q 1384 244 1747 244 
Q 2106 244 2326 466 
Q 2547 688 2547 1044 
z
M 3122 2075 
L 3122 331 
L 3634 331 
L 3634 0 
L 2547 0 
L 2547 359 
Q 2356 128 2106 18 
Q 1856 -91 1522 -91 
Q 969 -91 644 203 
Q 319 497 319 997 
Q 319 1513 691 1797 
Q 1063 2081 1741 2081 
L 2547 2081 
L 2547 2309 
Q 2547 2688 2317 2895 
Q 2088 3103 1672 3103 
Q 1328 3103 1125 2947 
Q 922 2791 872 2484 
L 575 2484 
L 575 3156 
Q 875 3284 1158 3348 
Q 1441 3413 1709 3413 
Q 2400 3413 2761 3070 
Q 3122 2728 3122 2075 
z
" transform="scale(0.015625)"/>
       <path id="DejaVuSerif-72" d="M 3059 3328 
L 3059 2497 
L 2728 2497 
Q 2713 2744 2591 2866 
Q 2469 2988 2234 2988 
Q 1809 2988 1582 2694 
Q 1356 2400 1356 1850 
L 1356 331 
L 2022 331 
L 2022 0 
L 263 0 
L 263 331 
L 781 331 
L 781 2994 
L 231 2994 
L 231 3322 
L 1356 3322 
L 1356 2731 
Q 1525 3078 1790 3245 
Q 2056 3413 2438 3413 
Q 2578 3413 2733 3391 
Q 2888 3369 3059 3328 
z
" transform="scale(0.015625)"/>
       <path id="DejaVuSerif-6b" d="M 1831 0 
L 219 0 
L 219 331 
L 738 331 
L 738 4531 
L 184 4531 
L 184 4863 
L 1313 4863 
L 1313 1697 
L 2713 2988 
L 2234 2988 
L 2234 3322 
L 3738 3322 
L 3738 2988 
L 3169 2988 
L 2181 2075 
L 3444 331 
L 3922 331 
L 3922 0 
L 2284 0 
L 2284 331 
L 2759 331 
L 1766 1697 
L 1313 1275 
L 1313 331 
L 1831 331 
L 1831 0 
z
" transform="scale(0.015625)"/>
       <path id="DejaVuSerif-20" transform="scale(0.015625)"/>
       <path id="DejaVuSerif-41" d="M 1281 1691 
L 2994 1691 
L 2138 3909 
L 1281 1691 
z
M -38 0 
L -38 331 
L 372 331 
L 2034 4666 
L 2559 4666 
L 4225 331 
L 4684 331 
L 4684 0 
L 2988 0 
L 2988 331 
L 3506 331 
L 3116 1356 
L 1153 1356 
L 763 331 
L 1275 331 
L 1275 0 
L -38 0 
z
" transform="scale(0.015625)"/>
       <path id="DejaVuSerif-75" d="M 2266 3322 
L 3341 3322 
L 3341 331 
L 3884 331 
L 3884 0 
L 2766 0 
L 2766 588 
Q 2606 256 2353 82 
Q 2100 -91 1766 -91 
Q 1213 -91 952 223 
Q 691 538 691 1209 
L 691 2988 
L 172 2988 
L 172 3322 
L 1269 3322 
L 1269 1388 
Q 1269 781 1417 556 
Q 1566 331 1947 331 
Q 2347 331 2556 625 
Q 2766 919 2766 1478 
L 2766 2988 
L 2266 2988 
L 2266 3322 
z
" transform="scale(0.015625)"/>
       <path id="DejaVuSerif-79" d="M 1381 -609 
L 1600 -56 
L 359 2988 
L -19 2988 
L -19 3322 
L 1509 3322 
L 1509 2988 
L 978 2988 
L 1913 703 
L 2847 2988 
L 2350 2988 
L 2350 3322 
L 3597 3322 
L 3597 2988 
L 3225 2988 
L 1703 -750 
Q 1547 -1138 1356 -1280 
Q 1166 -1422 819 -1422 
Q 672 -1422 517 -1397 
Q 363 -1372 206 -1325 
L 206 -691 
L 500 -691 
Q 519 -903 608 -995 
Q 697 -1088 884 -1088 
Q 1056 -1088 1161 -992 
Q 1266 -897 1381 -609 
z
" transform="scale(0.015625)"/>
       <path id="DejaVuSerif-54" d="M 1222 0 
L 1222 331 
L 1819 331 
L 1819 4294 
L 447 4294 
L 447 3566 
L 63 3566 
L 63 4666 
L 4206 4666 
L 4206 3566 
L 3822 3566 
L 3822 4294 
L 2450 4294 
L 2450 331 
L 3047 331 
L 3047 0 
L 1222 0 
z
" transform="scale(0.015625)"/>
      </defs>
      <use xlink:href="#DejaVuSerif-42"/>
      <use xlink:href="#DejaVuSerif-65" transform="translate(73.486328 0)"/>
      <use xlink:href="#DejaVuSerif-6e" transform="translate(132.666016 0)"/>
      <use xlink:href="#DejaVuSerif-63" transform="translate(197.070312 0)"/>
      <use xlink:href="#DejaVuSerif-68" transform="translate(253.076172 0)"/>
      <use xlink:href="#DejaVuSerif-6d" transform="translate(317.480469 0)"/>
      <use xlink:href="#DejaVuSerif-61" transform="translate(412.304688 0)"/>
      <use xlink:href="#DejaVuSerif-72" transform="translate(471.923828 0)"/>
      <use xlink:href="#DejaVuSerif-6b" transform="translate(519.726562 0)"/>
      <use xlink:href="#DejaVuSerif-20" transform="translate(580.322266 0)"/>
      <use xlink:href="#DejaVuSerif-41" transform="translate(612.109375 0)"/>
      <use xlink:href="#DejaVuSerif-63" transform="translate(684.326172 0)"/>
      <use xlink:href="#DejaVuSerif-63" transform="translate(740.332031 0)"/>
      <use xlink:href="#DejaVuSerif-75" transform="translate(796.337891 0)"/>
      <use xlink:href="#DejaVuSerif-72" transform="translate(860.742188 0)"/>
      <use xlink:href="#DejaVuSerif-61" transform="translate(908.544922 0)"/>
      <use xlink:href="#DejaVuSerif-63" transform="translate(968.164062 0)"/>
      <use xlink:href="#DejaVuSerif-79" transform="translate(1024.169922 0)"/>
      <use xlink:href="#DejaVuSerif-20" transform="translate(1080.664062 0)"/>
      <use xlink:href="#DejaVuSerif-2d" transform="translate(1112.451172 0)"/>
      <use xlink:href="#DejaVuSerif-20" transform="translate(1146.240234 0)"/>
      <use xlink:href="#DejaVuSerif-54" transform="translate(1178.027344 0)"/>
      <use xlink:href="#DejaVuSerif-72" transform="translate(1244.726562 0)"/>
      <use xlink:href="#DejaVuSerif-75" transform="translate(1292.529297 0)"/>
      <use xlink:href="#DejaVuSerif-65" transform="translate(1356.933594 0)"/>
      <use xlink:href="#DejaVuSerif-20" transform="translate(1416.113281 0)"/>
      <use xlink:href="#DejaVuSerif-41" transform="translate(1447.900391 0)"/>
      <use xlink:href="#DejaVuSerif-63" transform="translate(1520.117188 0)"/>
      <use xlink:href="#DejaVuSerif-63" transform="translate(1576.123047 0)"/>
      <use xlink:href="#DejaVuSerif-75" transform="translate(1632.128906 0)"/>
      <use xlink:href="#DejaVuSerif-72" transform="translate(1696.533203 0)"/>
      <use xlink:href="#DejaVuSerif-61" transform="translate(1744.335938 0)"/>
      <use xlink:href="#DejaVuSerif-63" transform="translate(1803.955078 0)"/>
      <use xlink:href="#DejaVuSerif-79" transform="translate(1859.960938 0)"/>
     </g>
    </g>
   </g>
   <g id="matplotlib.axis_2">
    <g id="ytick_1">
     <g id="line2d_4">
      <defs>
       <path id="m4f8a32240a" d="M 0 0 
L -3.5 0 
" style="stroke: #000000; stroke-width: 0.8"/>
      </defs>
      <g>
       <use xlink:href="#m4f8a32240a" x="45.55" y="101" style="stroke: #000000; stroke-width: 0.8"/>
      </g>
     </g>
     <g id="text_5">
      <!-- 0 -->
      <g transform="translate(32.1875 104.799219) scale(0.1 -0.1)">
       <use xlink:href="#DejaVuSerif-30"/>
      </g>
     </g>
    </g>
    <g id="ytick_2">
     <g id="line2d_5">
      <g>
       <use xlink:href="#m4f8a32240a" x="45.55" y="77.16" style="stroke: #000000; stroke-width: 0.8"/>
      </g>
     </g>
     <g id="text_6">
      <!-- 20 -->
      <g transform="translate(25.825 80.959219) scale(0.1 -0.1)">
       <defs>
        <path id="DejaVuSerif-32" d="M 819 3553 
L 469 3553 
L 469 4384 
Q 803 4563 1142 4656 
Q 1481 4750 1806 4750 
Q 2534 4750 2956 4397 
Q 3378 4044 3378 3438 
Q 3378 2753 2422 1800 
Q 2347 1728 2309 1691 
L 1131 513 
L 3078 513 
L 3078 1088 
L 3444 1088 
L 3444 0 
L 434 0 
L 434 341 
L 1850 1753 
Q 2319 2222 2519 2614 
Q 2719 3006 2719 3438 
Q 2719 3909 2473 4175 
Q 2228 4441 1797 4441 
Q 1350 4441 1106 4219 
Q 863 3997 819 3553 
z
" transform="scale(0.015625)"/>
       </defs>
       <use xlink:href="#DejaVuSerif-32"/>
       <use xlink:href="#DejaVuSerif-30" transform="translate(63.623047 0)"/>
      </g>
     </g>
    </g>
    <g id="ytick_3">
     <g id="line2d_6">
      <g>
       <use xlink:href="#m4f8a32240a" x="45.55" y="53.32" style="stroke: #000000; stroke-width: 0.8"/>
      </g>
     </g>
     <g id="text_7">
      <!-- 40 -->
      <g transform="translate(25.825 57.119219) scale(0.1 -0.1)">
       <defs>
        <path id="DejaVuSerif-34" d="M 2234 1581 
L 2234 4063 
L 641 1581 
L 2234 1581 
z
M 3609 0 
L 1484 0 
L 1484 331 
L 2234 331 
L 2234 1247 
L 197 1247 
L 197 1588 
L 2241 4750 
L 2859 4750 
L 2859 1581 
L 3750 1581 
L 3750 1247 
L 2859 1247 
L 2859 331 
L 3609 331 
L 3609 0 
z
" transform="scale(0.015625)"/>
       </defs>
       <use xlink:href="#DejaVuSerif-34"/>
       <use xlink:href="#DejaVuSerif-30" transform="translate(63.623047 0)"/>
      </g>
     </g>
    </g>
    <g id="ytick_4">
     <g id="line2d_7">
      <g>
       <use xlink:href="#m4f8a32240a" x="45.55" y="29.48" style="stroke: #000000; stroke-width: 0.8"/>
      </g>
     </g>
     <g id="text_8">
      <!-- 60 -->
      <g transform="translate(25.825 33.279219) scale(0.1 -0.1)">
       <defs>
        <path id="DejaVuSerif-36" d="M 2094 219 
Q 2534 219 2771 542 
Q 3009 866 3009 1472 
Q 3009 2078 2771 2401 
Q 2534 2725 2094 2725 
Q 1647 2725 1412 2412 
Q 1178 2100 1178 1509 
Q 1178 888 1415 553 
Q 1653 219 2094 219 
z
M 1075 2569 
Q 1288 2803 1556 2918 
Q 1825 3034 2163 3034 
Q 2859 3034 3264 2615 
Q 3669 2197 3669 1472 
Q 3669 763 3233 336 
Q 2797 -91 2069 -91 
Q 1278 -91 853 498 
Q 428 1088 428 2181 
Q 428 3406 931 4078 
Q 1434 4750 2350 4750 
Q 2597 4750 2869 4703 
Q 3141 4656 3425 4563 
L 3425 3794 
L 3072 3794 
Q 3034 4109 2831 4275 
Q 2628 4441 2284 4441 
Q 1678 4441 1381 3981 
Q 1084 3522 1075 2569 
z
" transform="scale(0.015625)"/>
       </defs>
       <use xlink:href="#DejaVuSerif-36"/>
       <use xlink:href="#DejaVuSerif-30" transform="translate(63.623047 0)"/>
      </g>
     </g>
    </g>
    <g id="text_9">
     <!-- Simulation Count -->
     <g transform="translate(19.745312 100.580469) rotate(-90) scale(0.1 -0.1)">
      <defs>
       <path id="DejaVuSerif-53" d="M 594 225 
L 594 1288 
L 953 1284 
Q 969 753 1261 498 
Q 1553 244 2150 244 
Q 2706 244 2998 464 
Q 3291 684 3291 1106 
Q 3291 1444 3114 1625 
Q 2938 1806 2369 1978 
L 1753 2163 
Q 1084 2366 811 2669 
Q 538 2972 538 3500 
Q 538 4094 959 4422 
Q 1381 4750 2144 4750 
Q 2469 4750 2856 4679 
Q 3244 4609 3681 4475 
L 3681 3481 
L 3328 3481 
Q 3275 3975 2998 4195 
Q 2722 4416 2156 4416 
Q 1663 4416 1405 4214 
Q 1147 4013 1147 3628 
Q 1147 3294 1340 3103 
Q 1534 2913 2163 2725 
L 2741 2553 
Q 3375 2363 3645 2067 
Q 3916 1772 3916 1275 
Q 3916 597 3481 253 
Q 3047 -91 2188 -91 
Q 1803 -91 1404 -12 
Q 1006 66 594 225 
z
" transform="scale(0.015625)"/>
       <path id="DejaVuSerif-69" d="M 622 4353 
Q 622 4497 726 4603 
Q 831 4709 978 4709 
Q 1122 4709 1226 4603 
Q 1331 4497 1331 4353 
Q 1331 4206 1228 4103 
Q 1125 4000 978 4000 
Q 831 4000 726 4103 
Q 622 4206 622 4353 
z
M 1356 331 
L 1900 331 
L 1900 0 
L 231 0 
L 231 331 
L 781 331 
L 781 2988 
L 231 2988 
L 231 3322 
L 1356 3322 
L 1356 331 
z
" transform="scale(0.015625)"/>
       <path id="DejaVuSerif-6c" d="M 1313 331 
L 1856 331 
L 1856 0 
L 184 0 
L 184 331 
L 738 331 
L 738 4531 
L 184 4531 
L 184 4863 
L 1313 4863 
L 1313 331 
z
" transform="scale(0.015625)"/>
       <path id="DejaVuSerif-74" d="M 691 2988 
L 184 2988 
L 184 3322 
L 691 3322 
L 691 4353 
L 1269 4353 
L 1269 3322 
L 2350 3322 
L 2350 2988 
L 1269 2988 
L 1269 878 
Q 1269 456 1350 337 
Q 1431 219 1650 219 
Q 1875 219 1978 351 
Q 2081 484 2088 781 
L 2522 781 
Q 2497 328 2275 118 
Q 2053 -91 1600 -91 
Q 1103 -91 897 129 
Q 691 350 691 878 
L 691 2988 
z
" transform="scale(0.015625)"/>
       <path id="DejaVuSerif-6f" d="M 1925 219 
Q 2388 219 2623 584 
Q 2859 950 2859 1663 
Q 2859 2375 2623 2739 
Q 2388 3103 1925 3103 
Q 1463 3103 1227 2739 
Q 991 2375 991 1663 
Q 991 950 1228 584 
Q 1466 219 1925 219 
z
M 1925 -91 
Q 1200 -91 759 389 
Q 319 869 319 1663 
Q 319 2456 758 2934 
Q 1197 3413 1925 3413 
Q 2653 3413 3092 2934 
Q 3531 2456 3531 1663 
Q 3531 869 3092 389 
Q 2653 -91 1925 -91 
z
" transform="scale(0.015625)"/>
       <path id="DejaVuSerif-43" d="M 4513 1234 
Q 4306 581 3820 245 
Q 3334 -91 2591 -91 
Q 2134 -91 1743 65 
Q 1353 222 1050 525 
Q 700 875 529 1320 
Q 359 1766 359 2328 
Q 359 3416 987 4083 
Q 1616 4750 2644 4750 
Q 3025 4750 3456 4650 
Q 3888 4550 4384 4347 
L 4384 3272 
L 4031 3272 
Q 3916 3859 3567 4137 
Q 3219 4416 2591 4416 
Q 1844 4416 1459 3886 
Q 1075 3356 1075 2328 
Q 1075 1303 1459 773 
Q 1844 244 2591 244 
Q 3113 244 3450 492 
Q 3788 741 3938 1234 
L 4513 1234 
z
" transform="scale(0.015625)"/>
      </defs>
      <use xlink:href="#DejaVuSerif-53"/>
      <use xlink:href="#DejaVuSerif-69" transform="translate(68.505859 0)"/>
      <use xlink:href="#DejaVuSerif-6d" transform="translate(100.488281 0)"/>
      <use xlink:href="#DejaVuSerif-75" transform="translate(195.3125 0)"/>
      <use xlink:href="#DejaVuSerif-6c" transform="translate(259.716797 0)"/>
      <use xlink:href="#DejaVuSerif-61" transform="translate(291.699219 0)"/>
      <use xlink:href="#DejaVuSerif-74" transform="translate(351.318359 0)"/>
      <use xlink:href="#DejaVuSerif-69" transform="translate(391.503906 0)"/>
      <use xlink:href="#DejaVuSerif-6f" transform="translate(423.486328 0)"/>
      <use xlink:href="#DejaVuSerif-6e" transform="translate(483.691406 0)"/>
      <use xlink:href="#DejaVuSerif-20" transform="translate(548.095703 0)"/>
      <use xlink:href="#DejaVuSerif-43" transform="translate(579.882812 0)"/>
      <use xlink:href="#DejaVuSerif-6f" transform="translate(656.396484 0)"/>
      <use xlink:href="#DejaVuSerif-75" transform="translate(716.601562 0)"/>
      <use xlink:href="#DejaVuSerif-6e" transform="translate(781.005859 0)"/>
      <use xlink:href="#DejaVuSerif-74" transform="translate(845.410156 0)"/>
     </g>
    </g>
   </g>
   <g id="line2d_8">
    <path d="M 160.975 101 
L 160.975 11.6 
" clip-path="url(#p41d7d2dc69)" style="fill: none; stroke: #000000; stroke-width: 1.5; stroke-linecap: square"/>
   </g>
   <g id="patch_34">
    <path d="M 45.55 101 
L 45.55 11.6 
" style="fill: none; stroke: #000000; stroke-width: 0.8; stroke-linejoin: miter; stroke-linecap: square"/>
   </g>
   <g id="patch_35">
    <path d="M 276.4 101 
L 276.4 11.6 
" style="fill: none; stroke: #000000; stroke-width: 0.8; stroke-linejoin: miter; stroke-linecap: square"/>
   </g>
   <g id="patch_36">
    <path d="M 45.55 101 
L 276.4 101 
" style="fill: none; stroke: #000000; stroke-width: 0.8; stroke-linejoin: miter; stroke-linecap: square"/>
   </g>
   <g id="patch_37">
    <path d="M 45.55 11.6 
L 276.4 11.6 
" style="fill: none; stroke: #000000; stroke-width: 0.8; stroke-linejoin: miter; stroke-linecap: square"/>
   </g>
   <g id="text_10">
    <!-- True &gt; Benchmark -->
    <g transform="translate(60.93821 22.908594) scale(0.09 -0.09)">
     <defs>
      <path id="DejaVuSerif-3e" d="M 678 3188 
L 678 3719 
L 4684 2266 
L 4684 1747 
L 678 294 
L 678 825 
L 3922 2003 
L 678 3188 
z
" transform="scale(0.015625)"/>
     </defs>
     <use xlink:href="#DejaVuSerif-54"/>
     <use xlink:href="#DejaVuSerif-72" transform="translate(66.699219 0)"/>
     <use xlink:href="#DejaVuSerif-75" transform="translate(114.501953 0)"/>
     <use xlink:href="#DejaVuSerif-65" transform="translate(178.90625 0)"/>
     <use xlink:href="#DejaVuSerif-20" transform="translate(238.085938 0)"/>
     <use xlink:href="#DejaVuSerif-3e" transform="translate(269.873047 0)"/>
     <use xlink:href="#DejaVuSerif-20" transform="translate(353.662109 0)"/>
     <use xlink:href="#DejaVuSerif-42" transform="translate(385.449219 0)"/>
     <use xlink:href="#DejaVuSerif-65" transform="translate(458.935547 0)"/>
     <use xlink:href="#DejaVuSerif-6e" transform="translate(518.115234 0)"/>
     <use xlink:href="#DejaVuSerif-63" transform="translate(582.519531 0)"/>
     <use xlink:href="#DejaVuSerif-68" transform="translate(638.525391 0)"/>
     <use xlink:href="#DejaVuSerif-6d" transform="translate(702.929688 0)"/>
     <use xlink:href="#DejaVuSerif-61" transform="translate(797.753906 0)"/>
     <use xlink:href="#DejaVuSerif-72" transform="translate(857.373047 0)"/>
     <use xlink:href="#DejaVuSerif-6b" transform="translate(905.175781 0)"/>
    </g>
   </g>
   <g id="text_11">
    <!-- Benchmark &gt; True -->
    <g transform="translate(174.091477 22.908594) scale(0.09 -0.09)">
     <use xlink:href="#DejaVuSerif-42"/>
     <use xlink:href="#DejaVuSerif-65" transform="translate(73.486328 0)"/>
     <use xlink:href="#DejaVuSerif-6e" transform="translate(132.666016 0)"/>
     <use xlink:href="#DejaVuSerif-63" transform="translate(197.070312 0)"/>
     <use xlink:href="#DejaVuSerif-68" transform="translate(253.076172 0)"/>
     <use xlink:href="#DejaVuSerif-6d" transform="translate(317.480469 0)"/>
     <use xlink:href="#DejaVuSerif-61" transform="translate(412.304688 0)"/>
     <use xlink:href="#DejaVuSerif-72" transform="translate(471.923828 0)"/>
     <use xlink:href="#DejaVuSerif-6b" transform="translate(519.726562 0)"/>
     <use xlink:href="#DejaVuSerif-20" transform="translate(580.322266 0)"/>
     <use xlink:href="#DejaVuSerif-3e" transform="translate(612.109375 0)"/>
     <use xlink:href="#DejaVuSerif-20" transform="translate(695.898438 0)"/>
     <use xlink:href="#DejaVuSerif-54" transform="translate(727.685547 0)"/>
     <use xlink:href="#DejaVuSerif-72" transform="translate(794.384766 0)"/>
     <use xlink:href="#DejaVuSerif-75" transform="translate(842.1875 0)"/>
     <use xlink:href="#DejaVuSerif-65" transform="translate(906.591797 0)"/>
    </g>
   </g>
  </g>
 </g>
 <defs>
  <clipPath id="p41d7d2dc69">
   <rect x="45.55" y="11.6" width="230.85" height="89.4"/>
  </clipPath>
 </defs>
</svg>
